<?xml version="1.0" standalone="no"?>
<!DOCTYPE svg PUBLIC "-//W3C//DTD SVG 1.1//EN" "http://www.w3.org/Graphics/SVG/1.1/DTD/svg11.dtd" >
<svg>
<metadata>
Created by FontForge 20090914 at Fri Feb 24 15:58:04 2012
 By root
Copyright (c) 2010 by Sorkin Type Co with Reserved Font Name Inder.
</metadata>
<defs>
<font id="Inder-Regular" horiz-adv-x="1195" >
  <font-face 
    font-family="Inder"
    font-weight="400"
    font-stretch="normal"
    units-per-em="2048"
    panose-1="2 11 6 3 3 5 0 6 8 4"
    ascent="1638"
    descent="-410"
    x-height="1032"
    cap-height="1392"
    bbox="-159 -520 2288 2040"
    underline-thickness="152"
    underline-position="-36"
    unicode-range="U+0001-U+FB02"
  />
<missing-glyph horiz-adv-x="682" 
 />
    <glyph glyph-name=".notdef" horiz-adv-x="682" 
 />
    <glyph glyph-name=".null" horiz-adv-x="0" 
 />
    <glyph glyph-name="nonmarkingreturn" horiz-adv-x="682" 
 />
    <glyph glyph-name="uni0001" horiz-adv-x="0" 
 />
    <glyph glyph-name="uni0002" horiz-adv-x="0" 
 />
    <glyph glyph-name="uni0003" horiz-adv-x="0" 
 />
    <glyph glyph-name="uni0004" horiz-adv-x="0" 
 />
    <glyph glyph-name="uni0005" horiz-adv-x="0" 
 />
    <glyph glyph-name="uni0006" horiz-adv-x="0" 
 />
    <glyph glyph-name="uni0007" horiz-adv-x="0" 
 />
    <glyph glyph-name="uni0008" horiz-adv-x="0" 
 />
    <glyph glyph-name="uni0009" unicode="&#x9;" horiz-adv-x="0" 
 />
    <glyph glyph-name="uni0010" horiz-adv-x="0" 
 />
    <glyph glyph-name="uni0011" horiz-adv-x="0" 
 />
    <glyph glyph-name="uni0012" horiz-adv-x="0" 
 />
    <glyph glyph-name="uni0013" horiz-adv-x="0" 
 />
    <glyph glyph-name="uni0014" horiz-adv-x="0" 
 />
    <glyph glyph-name="uni0015" horiz-adv-x="0" 
 />
    <glyph glyph-name="uni0016" horiz-adv-x="0" 
 />
    <glyph glyph-name="uni0017" horiz-adv-x="0" 
 />
    <glyph glyph-name="uni0018" horiz-adv-x="0" 
 />
    <glyph glyph-name="uni0019" horiz-adv-x="0" 
 />
    <glyph glyph-name="space" unicode=" " horiz-adv-x="682" 
 />
    <glyph glyph-name="exclam" unicode="!" horiz-adv-x="512" 
d="M156 1450h200l-16 -1036h-168zM156.5 7.5q-39.5 32.5 -39.5 94t39.5 94.5t100 33t100.5 -33t40 -94.5t-40 -94t-100.5 -32.5t-100 32.5z" />
    <glyph glyph-name="quotedbl" unicode="&#x22;" horiz-adv-x="853" 
d="M138 1530h206l-26 -542h-154zM507 1530h206l-26 -542h-154z" />
    <glyph glyph-name="numbersign" unicode="#" horiz-adv-x="1534" 
d="M356 340h-234v148h262l72 384h-246v148h274l64 340h162l-64 -340h346l64 340h162l-65 -340h233v-148h-261l-72 -384h247v-148h-275l-64 -340h-162l64 340h-345l-64 -340h-162zM891 488l73 384h-346l-72 -384h345z" />
    <glyph glyph-name="dollar" unicode="$" 
d="M519 0q-226 0 -349 16v194q126 -35 363 -35q317 0 317 146q0 60 -62 102q-48 33 -182 86l-122 48q-152 59 -223 130q-90 90 -90 230q0 175 191 259q66 28 157 40v314h152v-306q131 -1 322 -18v-194q-178 37 -305 37t-180 -12.5t-84 -32.5q-54 -37 -54 -92.5t45 -95.5
t146 -81l137 -56q175 -71 236 -125t88 -110.5t27 -122t-22 -115t-68 -89.5q-99 -86 -288 -109v-348h-152v340z" />
    <glyph glyph-name="percent" unicode="%" horiz-adv-x="1706" 
d="M430 680q-69 0 -127 22.5t-99 65.5q-88 92 -88 251q0 156 88 249q85 91 227 91q139 0 224 -91q86 -92 86 -249q0 -159 -86 -251q-83 -88 -225 -88zM317 863q41 -55 113 -55t111.5 55t39.5 154.5t-39.5 156.5t-111.5 57t-113 -57t-41 -156.5t41 -154.5zM963 339
q0 80 23 143t64 107q86 91 228 91q139 0 224 -91q86 -92 86 -249q0 -159 -86 -250q-83 -89 -224 -89q-143 0 -228 89q-87 91 -87 249zM1164 495q-41 -57 -41 -156.5t41 -154.5t113 -55t111.5 55t39.5 154.5t-39.5 156.5t-111.5 57t-113 -57zM1153 1360h167l-787 -1360h-167z
" />
    <glyph glyph-name="ampersand" unicode="&#x26;" horiz-adv-x="1364" 
d="M394 1022q0 -195 286 -195h612v-170h-124v-657h-173l-7 127q-107 -97 -282 -132q-56 -11 -131.5 -11t-158 24.5t-142.5 75.5q-125 106 -125 306q0 147 133 262q52 45 132 78v3q-105 42 -163.5 118t-58.5 156t25.5 146t88.5 119q144 120 440 120q170 0 276 -11v-180
q-122 23 -243.5 23t-188 -14.5t-110.5 -41.5q-86 -52 -86 -146zM632 144q215 0 344 127v387l-297 -1q-157 0 -247 -85q-81 -76 -81 -185q0 -181 164 -228q52 -15 117 -15z" />
    <glyph glyph-name="quotesingle" unicode="'" horiz-adv-x="512" 
d="M153 1530h206l-26 -542h-154z" />
    <glyph glyph-name="parenleft" unicode="(" horiz-adv-x="683" 
d="M480 -170q-291 238 -352 610q-19 116 -19 240q0 401 196 668q71 96 175 182h208q-281 -219 -365 -590q-28 -124 -28 -260.5t28 -260t79 -231.5q101 -214 286 -358h-208z" />
    <glyph glyph-name="parenright" unicode=")" horiz-adv-x="683" 
d="M160.029 -170q290.982 238 351.979 610q18.999 116 18.999 240q0 401 -195.988 668q-70.9951 96 -174.989 182h-207.987q280.982 -219 364.978 -590q27.998 -124 27.998 -260.5t-27.998 -260t-78.9951 -231.5q-100.994 -214 -285.982 -358h207.987z" />
    <glyph glyph-name="asterisk" unicode="*" 
d="M259 764l247 283l-366 88l53 167l348 -149l-34 377h177l-33 -378l346 157l54 -168l-366 -89l247 -282l-143 -103l-193 315l-195 -321z" />
    <glyph glyph-name="plus" unicode="+" horiz-adv-x="1194" 
d="M519 519h-422v152h422v421h152v-421h429v-152h-429v-429h-152v429z" />
    <glyph glyph-name="comma" unicode="," horiz-adv-x="512" 
d="M180 186h193v-186q0 -194 -75 -286q-84 -102 -274 -102v165q126 0 148 125q8 42 8 98v186z" />
    <glyph glyph-name="hyphen" unicode="-" horiz-adv-x="1022" 
d="M170 672h680v-154h-680v154z" />
    <glyph glyph-name="period" unicode="." horiz-adv-x="511" 
d="M156.5 7.5q-39.5 32.5 -39.5 94t39.5 94.5t100 33t100.5 -33t40 -94.5t-40 -94t-100.5 -32.5t-100 32.5z" />
    <glyph glyph-name="slash" unicode="/" horiz-adv-x="854" 
d="M660 1360h178l-648 -1530h-178z" />
    <glyph glyph-name="zero" unicode="0" horiz-adv-x="1365" 
d="M124 670q0 328 154 511q151 179 412 179q257 0 404 -179q152 -184 152 -511t-152 -509q-147 -177 -404 -177q-261 0 -412 177q-154 181 -154 509zM688 136q103 0 170 42t106 114q72 132 72 377q0 384 -178 497q-67 42 -168 42q-189 0 -278 -158q-78 -138 -78 -379
q0 -535 354 -535z" />
    <glyph glyph-name="one" unicode="1" horiz-adv-x="852" 
d="M487 1085l-359 -245v202l447 318h111v-1360h-199v1085z" />
    <glyph glyph-name="two" unicode="2" 
d="M170 1332q175 28 306.5 28t223 -19t155 -50.5t102.5 -71.5t60 -83q35 -70 35 -146t-22.5 -138.5t-64.5 -126.5t-103 -133l-136 -150l-260 -266h585v-176h-915v92l423 429l135 143q113 124 142 210q16 46 16 87.5t-12 78.5t-51 68q-91 74 -288 74t-331 -42v192z" />
    <glyph glyph-name="three" unicode="3" 
d="M768 23.5q-112 -32.5 -315.5 -32.5t-311.5 26v189q119 -38 336 -38t308.5 62.5t91.5 174.5t-99 165q-107 57 -362 57h-100v80l399 477h-545v176h869v-80l-419 -482v-3q405 -26 458 -301q8 -44 8 -109.5t-32.5 -140.5t-103 -131.5t-182.5 -89z" />
    <glyph glyph-name="four" unicode="4" 
d="M57 408l555 952h236l-508 -851h479v278h202v-278h114v-176h-114v-333h-202v333h-762v75z" />
    <glyph glyph-name="five" unicode="5" 
d="M141 211q136 -38 330 -38t293.5 62.5t99.5 199.5q0 125 -84 182q-97 67 -323 67h-279v672h821v-188h-629v-316h117q303 0 441 -98q142 -101 142 -323q0 -195 -142 -311q-156 -129 -458 -129q-221 0 -329 26v194z" />
    <glyph glyph-name="six" unicode="6" horiz-adv-x="1365" 
d="M1094 1155q-96 30 -233 30t-231 -34.5t-156 -96.5q-122 -121 -122 -330q116 85 276 116q56 10 138 10t169.5 -27.5t150.5 -80.5q131 -113 131 -318q0 -213 -167 -333q-149 -107 -356 -107q-265 0 -406 174q-136 166 -136 462v61q0 308 194 495q192 184 507 184h61
q120 0 180 -11v-194zM354 573q0 -300 189 -401q66 -36 146 -36t138.5 18.5t102.5 53.5q93 77 93 206t-88 205.5t-238 76.5q-155 0 -289 -82q-35 -22 -54 -41z" />
    <glyph glyph-name="seven" unicode="7" 
d="M862 1183h-757v176h1022v-80l-656 -1279h-230z" />
    <glyph glyph-name="eight" unicode="8" horiz-adv-x="1365" 
d="M194.5 214q-35.5 72 -35.5 135t13.5 107.5t41.5 89.5q65 102 182 154v3q-133 70 -182 209q-16 46 -16 88t11 84t34.5 82t61.5 77t91 65q117 61 285 61q324 0 441 -203q44 -77 44 -142.5t-16 -111t-43 -84.5q-55 -81 -139 -125v-3q117 -52 182 -154q55 -88 55 -174
t-35.5 -158t-103.5 -123q-141 -107 -384 -107t-384 107q-68 51 -103.5 123zM682 770q62 0 114.5 18.5t89.5 49.5q78 67 78 167q0 140 -150 191q-54 18 -131 18q-144 0 -219 -66q-63 -55 -63 -143q0 -100 78 -167q80 -68 203 -68zM361 367q0 -54 27.5 -99t72.5 -74
q91 -60 220 -60q213 0 295 134q27 45 27 99t-18 97.5t-57 77.5q-85 74 -246 74t-246 -74q-75 -65 -75 -175z" />
    <glyph glyph-name="nine" unicode="9" horiz-adv-x="1365" 
d="M260.066 188.07q95.9941 -29.998 232.986 -29.998q136.991 0 230.985 34.498q93.9951 34.498 155.991 96.4941q121.992 120.992 121.992 329.979q-115.993 -84.9941 -275.983 -115.993q-55.9961 -9.99902 -137.991 -9.99902t-169.49 27.498
q-87.4941 27.499 -150.49 80.4951q-130.992 112.993 -130.992 317.98q0 212.987 166.99 332.98q148.99 106.993 355.978 106.993q264.984 0 405.976 -173.989q135.992 -165.99 135.992 -461.972v-60.9961q0 -307.981 -193.988 -494.97q-191.988 -183.989 -506.97 -183.989
h-60.9961q-119.992 0 -179.989 10.999v193.988zM1000.02 770.035q0 299.981 -188.988 400.976q-65.9961 35.9971 -145.991 35.9971t-138.491 -18.498q-58.4971 -18.499 -102.494 -53.4971q-92.9941 -76.9951 -92.9941 -205.987t87.9941 -205.487
q87.9951 -76.4951 237.986 -76.4951q154.99 0 288.982 81.9941q34.9971 21.999 53.9961 40.998z" />
    <glyph glyph-name="colon" unicode=":" horiz-adv-x="512" 
d="M156.5 7.5q-39.5 32.5 -39.5 94t39.5 94.5t100 33t100.5 -33t40 -94.5t-40 -94t-100.5 -32.5t-100 32.5zM156.5 830.5q-39.5 32.5 -39.5 94t39.5 94.5t100 33t100.5 -33t40 -94.5t-40 -94t-100.5 -32.5t-100 32.5z" />
    <glyph glyph-name="semicolon" unicode=";" horiz-adv-x="513" 
d="M156.5 830.5q-39.5 32.5 -39.5 94t39.5 94.5t100 33t100.5 -33t40 -94.5t-40 -94t-100.5 -32.5t-100 32.5zM180 186h193v-186q0 -194 -75 -286q-84 -102 -274 -102v165q126 0 148 125q8 42 8 98v186z" />
    <glyph glyph-name="less" unicode="&#x3c;" horiz-adv-x="1190" 
d="M71 642l1003 432v-183l-744 -301l744 -300v-183l-1003 432v103z" />
    <glyph glyph-name="equal" unicode="=" horiz-adv-x="1194" 
d="M97 849h1003v-154h-1003v154zM97 494h1003v-154h-1003v154z" />
    <glyph glyph-name="greater" unicode="&#x3e;" horiz-adv-x="1190" 
d="M1117 642l-1002.94 432v-183l743.955 -301l-743.955 -300v-183l1002.94 432v103z" />
    <glyph glyph-name="question" unicode="?" horiz-adv-x="1023" 
d="M440 619q269 0 269 231q0 245 -281 326q-114 34 -258 36v188q356 0 558 -167q181 -151 181 -383q0 -237 -203 -340q-78 -40 -197 -46v-123h-170v282q40 -4 101 -4zM293 96q0 58 37 89t94 31t95 -31t38 -89t-38 -89t-95 -31t-94 31t-37 89z" />
    <glyph glyph-name="at" unicode="@" horiz-adv-x="2044" 
d="M977 849q63 12 166 12t231 -17v-500q0 -94 44 -164q52 -81 140 -81q144 0 191 204q16 70 16 189t-46.5 248.5t-138.5 228.5q-202 217 -547 217q-205 0 -381 -105q-264 -157 -347 -457q-27 -98 -27 -229.5t56 -270t160 -242.5q225 -223 586 -223q143 0 273 36q36 10 54 19
l-11 -162q-139 -52 -301 -52t-291 33.5t-237 94t-193 145.5t-144 187q-121 209 -121 461q0 246 127 459q122 205 334 328q214 124 463 124q278 0 489 -122q197 -113 306 -314q106 -193 106 -427q0 -202 -96 -351q-106 -166 -281 -166q-72 0 -133 34q-116 63 -149 151
q-63 -105 -187 -153q-52 -19 -120 -19t-138 23t-126 73q-125 113 -125 322q0 238 169 367q97 74 229 99zM1190 695q-36 9 -105 9t-127 -18.5t-100 -57.5q-87 -82 -87 -244q0 -143 77 -216q59 -54 120 -54t95 15.5t59 38.5q42 38 68 89v438z" />
    <glyph glyph-name="A" unicode="A" horiz-adv-x="1365" 
d="M614 1392h137l587 -1392h-208l-141 350h-618l-140 -350h-204zM925 510l-244 610l-245 -610h489z" />
    <glyph glyph-name="B" unicode="B" 
d="M170 1392h351q345 0 445 -199q37 -75 37 -149t-15.5 -117.5t-41.5 -79.5q-49 -68 -130 -116v-4q150 -43 221 -151q54 -82 54 -182t-39.5 -173t-109.5 -122q-143 -99 -382 -99h-390v1392zM559 785q161 0 217 127q19 45 19 100.5t-14 96t-45 69.5q-66 62 -199 62h-167v-455
h189zM883 390q0 243 -292 243h-221v-481h190q220 0 297 133q26 45 26 105z" />
    <glyph glyph-name="C" unicode="C" 
d="M1100 8q-99 -18 -266.5 -18t-302 46t-231.5 136q-208 193 -208 538q0 225 107 390q145 223 445 284q92 18 219.5 18t204.5 -14v-191q-70 22 -216.5 22t-248.5 -36t-169 -103q-134 -131 -134 -370q0 -241 132 -382q143 -152 411 -152q157 0 257 24v-192z" />
    <glyph glyph-name="D" unicode="D" horiz-adv-x="1366" 
d="M154 1391h338q342 0 542 -169q216 -181 216 -528t-210 -527q-196 -167 -538 -167h-348v1391zM1045 693q0 537 -566 537h-125v-1070h136q432 0 526 312q29 99 29 221z" />
    <glyph glyph-name="E" unicode="E" 
d="M154 1392h899v-174h-699v-410h529v-168h-529v-464h699v-176h-899v1392z" />
    <glyph glyph-name="F" unicode="F" 
d="M154 1392h947v-174h-747v-410h577v-168h-577v-640h-200v1392z" />
    <glyph glyph-name="G" unicode="G" horiz-adv-x="1366" 
d="M1198 14q-115 -30 -303.5 -30t-323 47t-231.5 139q-208 194 -208 540q0 226 108 390q146 223 449 284q93 18 228 18t233 -13v-192q-86 22 -245.5 22t-261.5 -36t-169 -103q-134 -131 -134 -370q0 -243 132 -389q144 -159 411 -159q62 0 115 5v513h200v-666z" />
    <glyph glyph-name="H" unicode="H" horiz-adv-x="1366" 
d="M154 1392h200v-550h658v550h200v-1392h-200v666h-658v-666h-200v1392z" />
    <glyph glyph-name="I" unicode="I" horiz-adv-x="512" 
d="M156 1392h200v-1392h-200v1392z" />
    <glyph glyph-name="J" unicode="J" horiz-adv-x="1024" 
d="M246 -10q-42 0 -117 5v193q40 -12 144.5 -12t176 29t119.5 92q97 127 97 407v511h-513v177h713v-688q0 -542 -341 -670q-117 -44 -279 -44z" />
    <glyph glyph-name="K" unicode="K" 
d="M154 1392h199v-652l536 652h250l-571 -670l615 -722h-248l-582 694v-694h-199v1392z" />
    <glyph glyph-name="L" unicode="L" horiz-adv-x="1026" 
d="M154 1392h200v-1216h596v-176h-796v1392z" />
    <glyph glyph-name="M" unicode="M" horiz-adv-x="1536" 
d="M145 1392h128l496 -570l494 570h128v-1392h-200v1060l-59 -80l-363 -423l-363 422l-61 80v-1059h-200v1392z" />
    <glyph glyph-name="N" unicode="N" horiz-adv-x="1365" 
d="M153 1392h144l727 -1027l-11 144v883h198v-1392h-143l-607 853l-121 174l11 -174v-853h-198v1392z" />
    <glyph glyph-name="O" unicode="O" horiz-adv-x="1536" 
d="M109 694q0 163 49 295t136 225q183 194 475 194q293 0 474 -194q184 -197 184 -520t-184 -518q-180 -192 -474 -192q-293 0 -475 192q-185 196 -185 518zM309 695q0 -228 111 -377q125 -166 349 -166t348 166q110 147 110 375q0 230 -110 379q-124 168 -348 168
q-225 0 -349 -168q-111 -149 -111 -377z" />
    <glyph glyph-name="P" unicode="P" 
d="M170 1392h395q395 0 509 -234q41 -86 41 -204t-42 -202t-113 -138q-138 -104 -369 -104h-221v-510h-200v1392zM552 670q181 0 268 70t87 218q0 197 -183 254q-64 20 -155 20h-199v-562h182z" />
    <glyph glyph-name="Q" unicode="Q" horiz-adv-x="1536" 
d="M1328 -383q-14 -3 -84 -3t-159 27.5t-161 76.5q-132 91 -223 262l5 7q-268 20 -430 209q-167 195 -167 498q0 323 185 520q183 194 475 194q293 0 474 -194q184 -197 184 -520q0 -284 -147 -474q-142 -184 -384 -225l3 -3q137 -184 385 -184h24q10 0 20 2v-193zM309 695
q0 -228 111 -377q125 -166 349 -166t348 166q110 147 110 375q0 230 -110 379q-124 168 -348 168q-225 0 -349 -168q-111 -149 -111 -377z" />
    <glyph glyph-name="R" unicode="R" 
d="M170 1392h395q395 0 509 -234q41 -86 41 -193.5t-28.5 -181.5t-79.5 -127q-98 -102 -270 -134q71 -219 241 -302q56 -28 94 -30q64 -2 90 4v-194h-45q-225 0 -383 160q-139 139 -187 350h-177v-510h-200v1392zM552 670q181 0 268 70t87 218q0 197 -183 254
q-64 20 -155 20h-199v-562h182z" />
    <glyph glyph-name="S" unicode="S" 
d="M765 18.5q-111 -28.5 -271.5 -28.5t-323.5 19v194q146 -33 294 -33t222 16.5t119 43.5q83 50 83 130q0 62 -32 96q-51 53 -147 97l-256 117q-132 62 -187 115q-118 114 -118 264q0 154 134 249q147 104 418 104q175 0 320 -14v-191q-123 28 -274.5 28t-220 -15.5
t-107.5 -39.5q-71 -44 -71 -116q0 -70 45 -116q40 -39 146 -90l263 -125q131 -62 183.5 -117t77.5 -110.5t25 -133t-34 -146t-105.5 -119t-182.5 -79z" />
    <glyph glyph-name="T" unicode="T" 
d="M495 1216h-419v176h1038v-176h-419v-1216h-200v1216z" />
    <glyph glyph-name="U" unicode="U" horiz-adv-x="1365" 
d="M683 156q328 0 328 403v833h200v-833q0 -295 -149 -442q-135 -133 -379 -133q-377 0 -489 311q-40 109 -40 264v833h200v-833q0 -403 329 -403z" />
    <glyph glyph-name="V" unicode="V" horiz-adv-x="1200" 
d="M-44 1392h208l437 -1144l435 1144h208l-548 -1392h-192z" />
    <glyph glyph-name="W" unicode="W" horiz-adv-x="1877" 
d="M2 1392h208l269 -982l39 -173l44 173l282 982h192l279 -982l45 -180l43 180l271 982h200l-422 -1392h-192l-293 980l-33 125l-32 -125l-290 -980h-192z" />
    <glyph glyph-name="X" unicode="X" 
d="M485 705l-440 687h223l329 -533l336 533h210l-448 -674l487 -718h-222l-374 570l-347 -570h-219z" />
    <glyph glyph-name="Y" unicode="Y" horiz-adv-x="1200" 
d="M497 606l-497 786h216l388 -622l380 622h216l-495 -784v-608h-208v606z" />
    <glyph glyph-name="Z" unicode="Z" 
d="M91 90l721 1133l-141 -5h-546v174h960v-90l-723 -1130l153 4h570v-176h-994v90z" />
    <glyph glyph-name="bracketleft" unicode="[" horiz-adv-x="684" 
d="M342.021 -34v1458h259.984v138h-440.973v-1734h442.973v138h-261.984z" />
    <glyph glyph-name="backslash" unicode="\" horiz-adv-x="854" 
d="M180.04 1360h-177.989l647.961 -1530h177.989z" />
    <glyph glyph-name="bracketright" unicode="]" horiz-adv-x="684" 
d="M341 -34v1458h-260v138h441v-1734h-443v138h262z" />
    <glyph glyph-name="asciicircum" unicode="^" horiz-adv-x="1193" 
d="M536 1392h120l503 -1052h-217l-318 689l-28 89l-28 -89l-329 -689h-205z" />
    <glyph glyph-name="underscore" unicode="_" 
d="M1205 -188v-152h-1215v152h1215z" />
    <glyph glyph-name="grave" unicode="`" horiz-adv-x="681" 
d="M92 1621h234l232 -367h-178z" />
    <glyph glyph-name="a" unicode="a" horiz-adv-x="1194" 
d="M148.5 318q-19.5 77 -19.5 201t53.5 228.5t139.5 171.5q167 129 415 129q129 0 195 -6l97 -10v-1032h-180l-8 119q-60 -80 -183 -119q-47 -15 -96.5 -15t-97.5 10t-95.5 33t-90.5 61.5t-76.5 95t-53 133.5zM829 885q-64 8 -127.5 8t-135.5 -22.5t-123 -70.5
q-106 -100 -106 -305q0 -194 91 -287q69 -69 166 -69q125 0 206 91q20 23 29 41v614z" />
    <glyph glyph-name="b" unicode="b" horiz-adv-x="1192" 
d="M682.5 16.5q-108.5 -31.5 -234 -31.5t-280.5 15v1488h200v-559q66 75 183 107q44 12 90.5 12t94.5 -9.5t95.5 -32.5t90.5 -61t76 -95q73 -122 73 -289.5t-53.5 -272.5t-140 -172.5t-195 -99zM369 147q28 -8 110 -8t154 23t123 72q107 103 107 307q0 249 -145 326
q-52 27 -106 27t-94 -14t-70 -34q-57 -39 -79 -84v-615z" />
    <glyph glyph-name="c" unicode="c" horiz-adv-x="1022" 
d="M896 3q-60 -19 -208 -19t-251.5 36t-176.5 106q-151 145 -151 402q0 249 181 392q162 128 398 128q146 0 200 -10v-178q-84 27 -191.5 27t-178.5 -29.5t-116 -79.5q-85 -95 -85 -250q0 -262 189 -349q67 -31 131 -31t98.5 3t65.5 8q66 11 95 23v-179z" />
    <glyph glyph-name="d" unicode="d" horiz-adv-x="1194" 
d="M506.5 1017q108.5 31 189.5 31t125 -4v444h199v-1488h-179l-8 119q-61 -81 -185 -120q-48 -15 -97.5 -15t-97.5 10t-95.5 33.5t-90.5 62t-77 94.5q-72 123 -72 291t53.5 272.5t140 171.5t195 98zM353.5 676.5q-27.5 -75.5 -27.5 -183t26 -177t65 -108.5q69 -70 166 -70
q125 0 207 92q21 23 30 41v615l-20 2q-46 6 -109.5 6t-135.5 -22.5t-123 -71t-78.5 -124z" />
    <glyph glyph-name="e" unicode="e" horiz-adv-x="1025" 
d="M637 -16q-566 0 -566 553q0 238 157 381q141 130 322 130q197 0 308 -132q103 -123 103 -329v-78h-682q0 -283 231 -346q55 -15 169.5 -15t224.5 31v-169q-110 -26 -267 -26zM761 656q0 96 -53 162q-62 76 -171 76q-115 0 -187 -73q-66 -68 -66 -165h477z" />
    <glyph glyph-name="f" unicode="f" horiz-adv-x="684" 
d="M679 1338q-36 12 -100 12t-101.5 -12t-59.5 -35q-38 -41 -38 -134v-137h258v-153h-258v-879h-200v879h-124v94l124 59v110q0 105 18.5 158t44.5 88t70 61q93 55 261 55q70 0 105 -8v-158z" />
    <glyph glyph-name="g" unicode="g" horiz-adv-x="1194" 
d="M742 -394q-87 -22 -223.5 -22t-199.5 20v178q79 -34 193.5 -34.5t168.5 15.5t85 52q56 65 56 235v53q-76 -76 -200 -106q-50 -12 -100 -12t-97.5 11t-94.5 35.5t-90 64t-76 98.5q-74 128 -74 315q-2 173 100 304q88 114 242 177q140 58 303 58t287 -16v-982
q0 -374 -280 -444zM822 886q-64 8 -126 8t-139 -23t-135 -70q-127 -103 -127 -292q0 -205 99 -299q74 -71 181 -71q129 0 217 91q21 23 30 41v615z" />
    <glyph glyph-name="h" unicode="h" horiz-adv-x="1194" 
d="M619 876q-148 0 -264 -101v-775h-200v1488h200v-567q162 127 335 127q185 0 271 -110q90 -116 90 -374v-564h-200v564q0 248 -135 296q-43 16 -97 16z" />
    <glyph glyph-name="i" unicode="i" horiz-adv-x="513" 
d="M350.5 1244.5q-37.5 -30.5 -93.5 -30.5t-92.5 30.5t-36.5 88t36.5 87.5t92.5 30t93.5 -30t37.5 -87.5t-37.5 -88zM154 1032h200v-1032h-200v1032z" />
    <glyph glyph-name="j" unicode="j" horiz-adv-x="512" 
d="M350.5 1245.5q-37.5 -30.5 -93.5 -30.5t-92.5 30.5t-36.5 88t36.5 87.5t92.5 30t93.5 -30t37.5 -87.5t-37.5 -88zM156 1032h200v-1052q0 -271 -170 -361q-67 -35 -173 -35q-17 0 -35 2l-37 4v154q27 -8 61 -8t64.5 12t50.5 40q39 56 39 193v1051z" />
    <glyph glyph-name="k" unicode="k" horiz-adv-x="1024" 
d="M170 1487h200v-917l418 462h238l-445 -468l468 -564h-244l-435 526v-526h-200v1487z" />
    <glyph glyph-name="l" unicode="l" horiz-adv-x="683" 
d="M198 1488h200v-1097q0 -198 90 -233q30 -12 64 -12t61 8v-154l-37 -4q-18 -2 -35 -2q-192 0 -277 126q-66 99 -66 270v1098z" />
    <glyph glyph-name="m" unicode="m" horiz-adv-x="1878" 
d="M359 775l1 -775h-200v1032h184l14 -113q110 92 256 120q47 9 92 9q187 0 282 -158q174 158 364 158q188 0 274 -113q86 -115 86 -380v-555h-200v548q0 260 -125 311q-42 17 -98 17q-134 0 -246 -96v-780h-200v556q0 178 -53 250q-51 70 -182.5 70t-248.5 -101z" />
    <glyph glyph-name="n" unicode="n" 
d="M620 876q-149 0 -265 -101v-775h-200v1032h185l14 -112q163 128 337 128q184 0 270 -110q90 -116 90 -374v-564h-200v564q0 248 -134 296q-43 16 -97 16z" />
    <glyph glyph-name="o" unicode="o" horiz-adv-x="1194" 
d="M88 518q0 243 155 394q145 141 359 141q210 0 351 -141q150 -150 150 -394q0 -243 -151 -392q-143 -142 -351 -142q-211 0 -358 142q-155 149 -155 392zM296 518q0 -256 164 -348q58 -32 139 -32t137 32.5t92 85.5q67 102 67 262q0 254 -161 348q-56 33 -134 33
t-135.5 -32.5t-94.5 -85.5q-74 -104 -74 -263z" />
    <glyph glyph-name="p" unicode="p" horiz-adv-x="1196" 
d="M370 -400h-200v1432h180l8 -118q60 80 184 119q48 15 97.5 15t97.5 -10.5t95 -34t90 -62t76 -95.5q72 -123 72 -305q0 -278 -192 -425q-170 -131 -414 -131h-50q-24 0 -44 1v-386zM370 148q28 -8 110 -8t154 23t122 71q106 102 106 307q0 193 -92 285q-68 68 -166 68
q-123 0 -204 -91q-21 -23 -30 -41v-614z" />
    <glyph glyph-name="q" unicode="q" horiz-adv-x="1196" 
d="M139.5 318q-19.5 77 -19.5 201t53.5 228.5t140.5 171.5q166 129 414 129q129 0 195 -6l97 -10v-1432h-200v274l13 245q-60 -80 -183 -119q-48 -15 -97.5 -15t-97.5 10t-95.5 33t-90.5 61.5t-76.5 95t-53 133.5zM820 885q-64 8 -127.5 8t-135.5 -22.5t-123 -70.5
q-106 -100 -106 -305q0 -194 91 -287q69 -69 166 -69q125 0 206 91q20 23 29 41v614z" />
    <glyph glyph-name="r" unicode="r" horiz-adv-x="853" 
d="M811 849q-55 16 -131.5 16t-125.5 -15.5t-86 -37.5q-68 -40 -99 -90v-722h-200v1032h192l8 -143q75 94 219 141q52 18 119 18t104 -10v-189z" />
    <glyph glyph-name="s" unicode="s" horiz-adv-x="1024" 
d="M408 -16q-125 0 -253 18v177q130 -31 264 -31q268 0 268 113q0 43 -21 64q-31 33 -98 66l-146 67q-142 71 -184 114q-79 80 -79 190q0 124 115 202q124 84 348 84q113 0 228 -16v-171q-126 23 -219.5 23t-145 -12t-77.5 -30q-41 -28 -41 -72.5t28.5 -72t89.5 -59.5
l147 -71q144 -75 185 -115q78 -76 78 -191q0 -123 -124 -198q-130 -79 -363 -79z" />
    <glyph glyph-name="t" unicode="t" horiz-adv-x="853" 
d="M526 158q33 -12 100 -12t112 16v-160q-21 -5 -61 -6l-63 -2h-32q-193 0 -285 126q-74 102 -74 270v489h-148v94l148 59l48 256h152v-256h320v-153h-320v-488q0 -196 103 -233z" />
    <glyph glyph-name="u" unicode="u" 
d="M828 253v779h200v-1032h-180l-18 109q-148 -125 -327 -125q-190 0 -269 105q-82 107 -82 369v574h200v-564q0 -185 53 -252q47 -60 179.5 -60t243.5 97z" />
    <glyph glyph-name="v" unicode="v" horiz-adv-x="1021" 
d="M14 1032h215l281 -837l282 837h214l-395 -1032h-201z" />
    <glyph glyph-name="w" unicode="w" horiz-adv-x="1707" 
d="M16 1032h213l265 -820l268 820h208l271 -817l252 817h198l-347 -1032h-206l-278 782l-263 -782h-206z" />
    <glyph glyph-name="x" unicode="x" horiz-adv-x="1025" 
d="M399 518l-355 514h227l246 -373l263 373h224l-384 -513l375 -519h-226l-263 376l-258 -376h-227z" />
    <glyph glyph-name="y" unicode="y" horiz-adv-x="1025" 
d="M112 -256q27 -8 73.5 -8t95.5 18.5t85 51.5q60 54 109 170l-424 1056h213l298 -822l267 822h211l-424 -1159q-48 -130 -133 -199q-112 -90 -299 -90q-17 0 -35 2l-37 4v154z" />
    <glyph glyph-name="z" unicode="z" horiz-adv-x="1025" 
d="M89 116l600 756h-563v160h819v-116l-609 -756h631v-160h-878v116z" />
    <glyph glyph-name="braceleft" unicode="{" horiz-adv-x="1023" 
d="M966 -171q-35 -8 -114 -8t-138 14.5t-97.5 40.5t-60 61t-32.5 75q-14 55 -14 171v61q0 228 -64 309q-57 72 -203 72h-71v145h71q147 0 203 70q64 80 64 307v61q0 116 12.5 163.5t34 82.5t59.5 61q82 55 243 55q72 0 107 -8v-142q-36 12 -105 12t-103 -13t-51 -38
q-27 -40 -27 -138v-104q0 -193 -48 -289q-45 -90 -163 -141v-19q117 -50 163 -145q48 -98 48 -293v-104q0 -98 22 -131q40 -58 134 -58t130 12v-142z" />
    <glyph glyph-name="bar" unicode="|" horiz-adv-x="511" 
d="M165 1360h180v-1530h-180v1530z" />
    <glyph glyph-name="braceright" unicode="}" horiz-adv-x="1023" 
d="M95.0586 -171q34.998 -8 113.993 -8t137.992 14.5q58.9961 14.5 97.4941 40.5q38.4971 26 59.9961 61q21.498 35 32.498 75q13.999 55 13.999 171v61q0 228 63.9961 309q56.9961 72 202.987 72h70.9961v145h-70.9961q-146.991 0 -202.987 70q-63.9961 80 -63.9961 307v61
q0 116 -12.499 163.5q-12.5 47.5 -33.998 82.5q-21.499 35 -59.4971 61q-81.9941 55 -242.984 55q-71.9961 0 -106.994 -8v-142q35.998 12 104.994 12t102.993 -13q33.998 -13 50.9971 -38q26.998 -40 26.998 -138v-104q0 -193 47.998 -289q44.9971 -90 162.989 -141v-19
q-116.992 -50 -162.989 -145q-47.998 -98 -47.998 -293v-104q0 -98 -21.998 -131q-39.998 -58 -133.992 -58t-129.992 12v-142z" />
    <glyph glyph-name="asciitilde" unicode="~" 
d="M20 551q0 151 87 245q82 88 209 88q85 0 142 -28t94 -52l82 -53q28 -18 56.5 -39.5t58.5 -39.5q70 -42 114.5 -42t69.5 14t43 38q38 52 38 129h160q0 -153 -87 -245q-82 -88 -209 -88q-83 0 -145 29.5t-99 53.5l-148 98q-108 73 -170 73q-59 0 -98 -52q-38 -52 -38 -129
h-160z" />
    <glyph glyph-name="nonbreakingspace" unicode="&#xa0;" horiz-adv-x="682" 
 />
    <glyph glyph-name="exclamdown" unicode="&#xa1;" horiz-adv-x="512" 
d="M357.5 856q-39.5 -33 -100 -33t-100.5 33t-40 94.5t40 94t100.5 32.5t100 -32.5t39.5 -94t-39.5 -94.5zM174 638h168l16 -1036h-200z" />
    <glyph glyph-name="cent" unicode="&#xa2;" horiz-adv-x="1024" 
d="M932 18q-75 -18 -252 -18h-1v-340h-152v352q-312 56 -399 320q-29 87 -29 192.5t33.5 187t91.5 142.5q115 118 303 158v348h152v-330l21 1q151 0 224 -10v-178q-76 27 -204 27t-204 -28t-124 -76q-92 -91 -92 -238q0 -251 211 -336q74 -29 208 -29t213 34v-179z" />
    <glyph glyph-name="sterling" unicode="&#xa3;" 
d="M1029 1041q-93 19 -199 19t-165.5 -29t-90.5 -77q-46 -72 -46 -230v-44h340v-152h-342q-14 -172 -112 -295q-28 -35 -57 -59v-4h703v-170h-1004v170q118 0 194 84q86 96 86 274h-254v152h254v40q0 388 298 484q80 26 166 26q146 0 228 -10z" />
    <glyph glyph-name="currency" unicode="&#xa4;" 
d="M594 179q-113 0 -208 56l-235 -235l-131 131l232 231q-69 105 -69 232t69 232l-231 232l131 132l236 -236q97 56 206 56q111 0 208 -57l237 236l131 -130l-232 -234q69 -108 69 -231.5t-70 -229.5l233 -232l-132 -131l-236 234q-95 -56 -208 -56zM326 594
q0 -54 21.5 -102t58.5 -84q78 -77 189 -77t190 77t79 187q0 111 -79 187q-80 76 -190 76q-111 0 -190 -77t-79 -187z" />
    <glyph glyph-name="yen" unicode="&#xa5;" 
d="M122 324h377v162h-377v154h377l-515 592h223l388 -434l391 434h220l-515 -592h377v-154h-377v-162h377v-154h-377v-170h-192v170h-377v154z" />
    <glyph glyph-name="brokenbar" unicode="&#xa6;" horiz-adv-x="511" 
d="M165 1360h180v-670h-180v670zM165 499h180v-669h-180v669z" />
    <glyph glyph-name="section" unicode="&#xa7;" horiz-adv-x="1023" 
d="M614 -198.5q-84 -25.5 -192.5 -25.5t-226.5 16v183q131 -23 221.5 -23t139.5 13.5t74 34.5q40 33 40 92q0 119 -150 174l-163 63q-146 56 -211 124q-76 79 -76 198q0 139 166 239q51 31 113 55q-94 53 -128 95q-63 78 -63 155t27 134.5t82 100.5q120 94 336 94
q100 0 222 -16v-183q-131 23 -221.5 23t-139.5 -15.5t-74 -38.5q-40 -36 -40 -94q0 -108 150 -166l163 -63q146 -56 211 -124q76 -79 76 -198q0 -139 -167 -239q-52 -31 -114 -54q93 -51 128 -94q65 -78 65 -156t-27 -135.5t-82 -100.5t-139 -68.5zM487 452q137 11 214 74
q65 54 65 123q0 62 -34 96q-67 69 -203 104q-136 -13 -211 -75q-64 -54 -64 -123q0 -97 116 -158q45 -24 117 -41z" />
    <glyph glyph-name="dieresis" unicode="&#xa8;" horiz-adv-x="850" 
d="M746 1243q-36 -29 -89 -29t-87.5 29t-34.5 84t34.5 83t87.5 28t89 -28t36 -83t-36 -84zM281 1243q-36 -29 -89 -29t-87.5 29t-34.5 84t34.5 83t87.5 28t89 -28t36 -83t-36 -84z" />
    <glyph glyph-name="copyright" unicode="&#xa9;" horiz-adv-x="1869" 
d="M136 567q0 216 109 401q163 278 477 366q102 28 212 28q215 0 403 -108q181 -105 287 -286q109 -185 109 -401q0 -217 -109 -401q-163 -277 -478 -364q-102 -29 -212 -29q-215 0 -403 109q-179 103 -286 284q-109 184 -109 401zM288 567q0 -269 189 -459
q88 -89 205.5 -140t229 -51t194.5 23t154.5 65.5t130.5 102t101 131.5q89 150 89 328q0 269 -190 461q-119 119 -285 166q-83 24 -194.5 24t-229 -51t-205.5 -139.5t-138.5 -207t-50.5 -253.5zM1191 148q-66 -16 -180.5 -16t-203 30t-153.5 88q-137 122 -137 332
q0 201 155 318q138 104 342 104q76 0 166 -10v-152q-80 20 -159 20t-140 -19.5t-103 -56.5q-84 -74 -84 -204q0 -133 78 -216q85 -88 239 -88q115 0 180 26v-156z" />
    <glyph glyph-name="ordfeminine" unicode="&#xaa;" horiz-adv-x="1023" 
d="M540 516q-41 -13 -93.5 -13t-112 21t-109.5 68q-116 109 -116 311q0 230 157 357q136 109 330 109q120 0 173 -6l81 -9v-844h-151l-7 111q-51 -75 -152 -105zM679 1217q-37 8 -98 8t-115.5 -18.5t-93.5 -58.5q-83 -82 -83 -245q0 -142 69 -211q53 -53 129 -53
q127 0 192 122v456z" />
    <glyph glyph-name="guillemotleft" unicode="&#xab;" horiz-adv-x="1706" 
d="M835 593l611 402v-196l-420 -266l420 -273v-196l-611 411v118zM221 593l611 402v-196l-420 -266l420 -273v-196l-611 411v118z" />
    <glyph glyph-name="logicalnot" unicode="&#xac;" horiz-adv-x="1194" 
d="M97 850h923v-510h-154v346h-769v164z" />
    <glyph glyph-name="uni00AD" unicode="&#xad;" horiz-adv-x="1229" 
 />
    <glyph glyph-name="registered" unicode="&#xae;" horiz-adv-x="1869" 
d="M136 567q0 216 109 401q163 278 477 366q102 28 212 28q215 0 403 -108q181 -105 287 -286q109 -185 109 -401q0 -217 -109 -401q-163 -277 -478 -364q-102 -29 -212 -29q-215 0 -403 109q-179 103 -286 284q-109 184 -109 401zM288 567q0 -269 189 -459
q88 -89 205.5 -140t229 -51t194.5 23t154.5 65.5t130.5 102t101 131.5q89 150 89 328q0 269 -190 461q-119 119 -285 166q-83 24 -194.5 24t-229 -51t-205.5 -139.5t-138.5 -207t-50.5 -253.5zM1014 479q64 -170 236 -170h24q15 0 25 2v-143h-34q-247 0 -353 195
q-30 55 -45 112h-93v-305h-149v850h265q217 0 314 -86q79 -70 79 -186q0 -238 -269 -269zM1131 745q0 141 -241 141h-116v-281h116q121 0 163.5 21t60 48t17.5 71z" />
    <glyph glyph-name="macron" unicode="&#xaf;" horiz-adv-x="681" 
d="M69 1392h542v-152h-542v152z" />
    <glyph glyph-name="degree" unicode="&#xb0;" horiz-adv-x="852" 
d="M425 706q-137 0 -234 96q-97 95 -97 231t97 231q97 96 234 96t234 -96q97 -95 97 -231t-97 -231q-97 -96 -234 -96zM425 850q73 0 127 54q52 52 52 129t-52 129q-54 54 -127 54t-127 -54q-52 -52 -52 -129t52 -129q54 -54 127 -54z" />
    <glyph glyph-name="plusminus" unicode="&#xb1;" horiz-adv-x="1194" 
d="M519 519h-422v152h422v421h152v-421h429v-152h-429v-429h-152v429zM127 161h943v-154h-943v154z" />
    <glyph glyph-name="twosuperior" unicode="&#xb2;" horiz-adv-x="853" 
d="M115 1350q81 19 183 19t162.5 -13t104.5 -35.5t72 -51.5t44 -61q29 -57 29 -129.5t-58.5 -152t-169.5 -177.5l-87 -77v-8h354v-154h-655v92l159 126q238 189 267 288q10 34 10 65t-10.5 56.5t-35.5 44.5q-53 43 -166 43q-69 0 -130 -14t-73 -19v158z" />
    <glyph glyph-name="threesuperior" unicode="&#xb3;" horiz-adv-x="853" 
d="M546 532q-79 -22 -212.5 -22t-241.5 26v156q125 -38 250 -38q254 0 254 121q0 69 -68 95q-63 25 -215 25h-82v80l239 240h-370v145h640v-80l-273 -262v-3q308 -22 308 -240q0 -182 -229 -243z" />
    <glyph glyph-name="acute" unicode="&#xb4;" horiz-adv-x="1192" 
d="M741 1621h234l-288 -367h-178z" />
    <glyph glyph-name="mu" unicode="&#xb5;" 
d="M576 0q-141 0 -245 95l22 -435h-186v1372h186v-576q0 -162 81 -242q60 -59 134.5 -59t120 17t77.5 42q58 47 81 105v713h186v-1032h-166l13 170h-4q-83 -120 -216 -158q-42 -12 -84 -12z" />
    <glyph glyph-name="mu" unicode="&#x3bc;" 
d="M576 0q-141 0 -245 95l22 -435h-186v1372h186v-576q0 -162 81 -242q60 -59 134.5 -59t120 17t77.5 42q58 47 81 105v713h186v-1032h-166l13 170h-4q-83 -120 -216 -158q-42 -12 -84 -12z" />
    <glyph glyph-name="paragraph" unicode="&#xb6;" horiz-adv-x="1196" 
d="M500 510q-176 0 -300.5 124.5t-124.5 300.5t124.5 300.5t300.5 124.5h156v-1h218v1h156v-1700h-156v1553h-218v-1553h-156v850z" />
    <glyph glyph-name="periodcentered" unicode="&#xb7;" horiz-adv-x="512" 
d="M357 628.5q-40 -32.5 -100.5 -32.5t-100 32.5t-39.5 94t39.5 94.5t100 33t100.5 -33t40 -94.5t-40 -94z" />
    <glyph glyph-name="cedilla" unicode="&#xb8;" horiz-adv-x="1021" 
d="M734 -275q0 56 -112 56h-120v303h144v-175h34q155 0 202 -99q16 -34 16 -84t-25 -94.5t-67 -75.5q-90 -65 -219 -65q-67 0 -101 8v139q45 -9 87 -9q161 0 161 96z" />
    <glyph glyph-name="onesuperior" unicode="&#xb9;" horiz-adv-x="683" 
d="M306 1133l-251 -173v180l318 228h104v-859h-171v624z" />
    <glyph glyph-name="ordmasculine" unicode="&#xba;" horiz-adv-x="1025" 
d="M510 503q-84 0 -158.5 28t-129.5 83q-119 117 -119 321t119 323q111 111 288 111q176 0 288 -111q120 -118 120 -323q0 -204 -120 -321q-112 -111 -288 -111zM404 666q44 -25 106.5 -25t106 24.5t71.5 64.5q52 78 52 205q0 199 -127 271q-43 25 -104 25t-104.5 -24.5
t-70.5 -64.5q-53 -78 -53 -207q0 -200 123 -269z" />
    <glyph glyph-name="guillemotright" unicode="&#xbb;" horiz-adv-x="1705" 
d="M892.051 593l-610.963 402v-196l419.975 -266l-419.975 -273v-196l610.963 411v118zM1506.01 593l-610.963 402v-196l419.975 -266l-419.975 -273v-196l610.963 411v118z" />
    <glyph glyph-name="onequarter" unicode="&#xbc;" horiz-adv-x="854" 
d="M392 510h206l-319 -517h228v177h172v-177h104v-137h-104v-197h-172v197h-453v75zM414 1303l-251 -173v180l318 228h104v-859h-171v624z" />
    <glyph glyph-name="onehalf" unicode="&#xbd;" horiz-adv-x="853" 
d="M145 502q81 19 183 19t162.5 -13t104.5 -35.5t72 -51.5t44 -61q29 -57 29 -129.5t-58.5 -152t-169.5 -177.5l-87 -77v-8h354v-154h-655v92l159 126q238 189 267 288q10 34 10 65t-10.5 56.5t-35.5 44.5q-53 43 -166 43q-69 0 -130 -14t-73 -19v158zM414 1303l-251 -173
v180l318 228h104v-859h-171v624z" />
    <glyph glyph-name="threequarters" unicode="&#xbe;" horiz-adv-x="854" 
d="M552 700q-79 -21 -212.5 -21t-241.5 26v156q125 -38 250 -38q254 0 254 121q0 69 -68 96q-63 24 -215 24h-82v80l239 240h-370v145h640v-80l-273 -262v-3q308 -22 308 -240q0 -182 -229 -244zM392 510h206l-319 -517h228v177h172v-177h104v-137h-104v-197h-172v197h-453
v75z" />
    <glyph glyph-name="questiondown" unicode="&#xbf;" horiz-adv-x="1024" 
d="M639.027 433.038q-268.984 0 -268.984 -230.986q0 -244.985 280.983 -325.979q113.993 -33.998 257.984 -35.998v-187.988q-355.979 0 -557.966 166.989q-180.989 150.991 -180.989 382.977q0 236.985 202.987 339.979q77.9951 39.9971 196.988 45.9971v122.992h169.989
v-281.982q-39.9971 4 -100.993 4zM786.018 956.006q0 -57.9961 -36.9971 -88.9941q-36.998 -30.998 -93.9951 -30.998q-56.9961 0 -94.9941 30.998q-37.9971 30.998 -37.9971 88.9941t37.9971 88.9941q37.998 30.998 94.9941 30.998q56.9971 0 93.9951 -30.998
q36.9971 -30.998 36.9971 -88.9941z" />
    <glyph glyph-name="Agrave" unicode="&#xc0;" horiz-adv-x="1365" 
d="M614 1392h137l587 -1392h-208l-141 350h-618l-140 -350h-204zM925 510l-244 610l-245 -610h489zM350 1897h234l232 -367h-178z" />
    <glyph glyph-name="Aacute" unicode="&#xc1;" horiz-adv-x="1365" 
d="M614 1392h137l587 -1392h-208l-141 350h-618l-140 -350h-204zM925 510l-244 610l-245 -610h489zM778 1897h234l-288 -367h-178z" />
    <glyph glyph-name="Acircumflex" unicode="&#xc2;" horiz-adv-x="1365" 
d="M614 1392h137l587 -1392h-208l-141 350h-618l-140 -350h-204zM925 510l-244 610l-245 -610h489zM355 1745l324 230l324 -230v-192l-324 214l-324 -214v192z" />
    <glyph glyph-name="Atilde" unicode="&#xc3;" horiz-adv-x="1365" 
d="M614 1392h137l587 -1392h-208l-141 350h-618l-140 -350h-204zM925 510l-244 610l-245 -610h489zM265 1602q0 113 69 188q68 73 167 73q80 0 168 -69l84 -64q61 -47 102 -47t65.5 27t24.5 80h152q0 -113 -69 -188q-68 -73 -167 -73q-91 0 -210 96l-41 33q-61 51 -102.5 51
t-66 -27t-24.5 -80h-152z" />
    <glyph glyph-name="Adieresis" unicode="&#xc4;" horiz-adv-x="1365" 
d="M614 1392h137l587 -1392h-208l-141 350h-618l-140 -350h-204zM925 510l-244 610l-245 -610h489zM992 1587q-36 -29 -89 -29t-87.5 29t-34.5 84t34.5 83t87.5 28t89 -28t36 -83t-36 -84zM527 1587q-36 -29 -89 -29t-87.5 29t-34.5 84t34.5 83t87.5 28t89 -28t36 -83
t-36 -84z" />
    <glyph glyph-name="Aring" unicode="&#xc5;" horiz-adv-x="1365" 
d="M614 1392h137l587 -1392h-208l-141 350h-618l-140 -350h-204zM925 510l-244 610l-245 -610h489zM679 1503q-57 0 -107 21t-87 57q-81 77 -81 190q0 112 80.5 190.5t195.5 78.5t195 -78q82 -80 82 -191q0 -112 -82 -190q-81 -78 -196 -78zM680 1615q62 0 105 45
q44 45 44 111q0 102 -91 145q-27 12 -58 12q-61 0 -105 -46q-43 -45 -43 -111t43 -111t105 -45z" />
    <glyph glyph-name="AE" unicode="&#xc6;" horiz-adv-x="1872" 
d="M923 1392h832v-174h-566v-410h396v-168h-396v-464h566v-176h-766v350h-521l-224 -350h-224zM989 510v655l-419 -655h419z" />
    <glyph glyph-name="Ccedilla" unicode="&#xc7;" 
d="M864 -275q0 56 -112 56h-120v227q-385 80 -501 434q-39 119 -39 252.5t28.5 231t78.5 174.5t119.5 133.5t151.5 94.5q164 74 342.5 74t255.5 -14v-191q-70 22 -216.5 22t-248.5 -36t-169 -103q-134 -131 -134 -370q0 -241 132 -382q143 -152 411 -152q157 0 257 24v-192
q-99 -18 -199.5 -18t-124.5 2v-83h34q155 0 202 -99q16 -34 16 -84t-25 -94.5t-67 -75.5q-90 -65 -219 -65q-67 0 -101 8v139q45 -9 87 -9q161 0 161 96z" />
    <glyph glyph-name="Egrave" unicode="&#xc8;" 
d="M154 1392h899v-174h-699v-410h529v-168h-529v-464h699v-176h-899v1392zM285 1897h234l232 -367h-178z" />
    <glyph glyph-name="Eacute" unicode="&#xc9;" 
d="M154 1392h899v-174h-699v-410h529v-168h-529v-464h699v-176h-899v1392zM713 1897h234l-288 -367h-178z" />
    <glyph glyph-name="Ecircumflex" unicode="&#xca;" 
d="M154 1392h899v-174h-699v-410h529v-168h-529v-464h699v-176h-899v1392zM290 1745l324 230l324 -230v-192l-324 214l-324 -214v192z" />
    <glyph glyph-name="Edieresis" unicode="&#xcb;" 
d="M154 1392h899v-174h-699v-410h529v-168h-529v-464h699v-176h-899v1392zM946 1587q-36 -29 -89 -29t-87.5 29t-34.5 84t34.5 83t87.5 28t89 -28t36 -83t-36 -84zM481 1587q-36 -29 -89 -29t-87.5 29t-34.5 84t34.5 83t87.5 28t89 -28t36 -83t-36 -84z" />
    <glyph glyph-name="Igrave" unicode="&#xcc;" horiz-adv-x="512" 
d="M156 1392h200v-1392h-200v1392zM-73 1897h234l232 -367h-178z" />
    <glyph glyph-name="Iacute" unicode="&#xcd;" horiz-adv-x="512" 
d="M156 1392h200v-1392h-200v1392zM354 1897h234l-288 -367h-178z" />
    <glyph glyph-name="Icircumflex" unicode="&#xce;" horiz-adv-x="512" 
d="M156 1392h200v-1392h-200v1392zM-68 1745l324 230l324 -230v-192l-324 214l-324 -214v192z" />
    <glyph glyph-name="Idieresis" unicode="&#xcf;" horiz-adv-x="512" 
d="M156 1392h200v-1392h-200v1392zM569 1587q-36 -29 -89 -29t-87.5 29t-34.5 84t34.5 83t87.5 28t89 -28t36 -83t-36 -84zM104 1587q-36 -29 -89 -29t-87.5 29t-34.5 84t34.5 83t87.5 28t89 -28t36 -83t-36 -84z" />
    <glyph glyph-name="Eth" unicode="&#xd0;" horiz-adv-x="1366" 
d="M154 666h-125v154h125v571h338q342 0 542 -169q216 -181 216 -528t-210 -527q-196 -167 -538 -167h-348v666zM1045 693q0 537 -566 537h-125v-410h355v-154h-355v-506h136q432 0 526 312q29 99 29 221z" />
    <glyph glyph-name="Ntilde" unicode="&#xd1;" horiz-adv-x="1365" 
d="M153 1392h144l727 -1027l-11 144v883h198v-1392h-143l-607 853l-121 174l11 -174v-853h-198v1392zM283 1602q0 113 69 188q68 73 167 73q80 0 168 -69l84 -64q61 -47 102 -47t65.5 27t24.5 80h152q0 -113 -69 -188q-68 -73 -167 -73q-91 0 -210 96l-41 33
q-61 51 -102.5 51t-66 -27t-24.5 -80h-152z" />
    <glyph glyph-name="Ograve" unicode="&#xd2;" horiz-adv-x="1536" 
d="M109 694q0 163 49 295t136 225q183 194 475 194q293 0 474 -194q184 -197 184 -520t-184 -518q-180 -192 -474 -192q-293 0 -475 192q-185 196 -185 518zM309 695q0 -228 111 -377q125 -166 349 -166t348 166q110 147 110 375q0 230 -110 379q-124 168 -348 168
q-225 0 -349 -168q-111 -149 -111 -377zM438 1897h234l232 -367h-178z" />
    <glyph glyph-name="Oacute" unicode="&#xd3;" horiz-adv-x="1536" 
d="M109 694q0 163 49 295t136 225q183 194 475 194q293 0 474 -194q184 -197 184 -520t-184 -518q-180 -192 -474 -192q-293 0 -475 192q-185 196 -185 518zM309 695q0 -228 111 -377q125 -166 349 -166t348 166q110 147 110 375q0 230 -110 379q-124 168 -348 168
q-225 0 -349 -168q-111 -149 -111 -377zM866 1897h234l-288 -367h-178z" />
    <glyph glyph-name="Ocircumflex" unicode="&#xd4;" horiz-adv-x="1536" 
d="M109 694q0 163 49 295t136 225q183 194 475 194q293 0 474 -194q184 -197 184 -520t-184 -518q-180 -192 -474 -192q-293 0 -475 192q-185 196 -185 518zM309 695q0 -228 111 -377q125 -166 349 -166t348 166q110 147 110 375q0 230 -110 379q-124 168 -348 168
q-225 0 -349 -168q-111 -149 -111 -377zM443 1745l324 230l324 -230v-192l-324 214l-324 -214v192z" />
    <glyph glyph-name="Otilde" unicode="&#xd5;" horiz-adv-x="1536" 
d="M109 694q0 163 49 295t136 225q183 194 475 194q293 0 474 -194q184 -197 184 -520t-184 -518q-180 -192 -474 -192q-293 0 -475 192q-185 196 -185 518zM309 695q0 -228 111 -377q125 -166 349 -166t348 166q110 147 110 375q0 230 -110 379q-124 168 -348 168
q-225 0 -349 -168q-111 -149 -111 -377zM353 1602q0 113 69 188q68 73 167 73q80 0 168 -69l84 -64q61 -47 102 -47t65.5 27t24.5 80h152q0 -113 -69 -188q-68 -73 -167 -73q-91 0 -210 96l-41 33q-61 51 -102.5 51t-66 -27t-24.5 -80h-152z" />
    <glyph glyph-name="Odieresis" unicode="&#xd6;" horiz-adv-x="1536" 
d="M109 694q0 163 49 295t136 225q183 194 475 194q293 0 474 -194q184 -197 184 -520t-184 -518q-180 -192 -474 -192q-293 0 -475 192q-185 196 -185 518zM309 695q0 -228 111 -377q125 -166 349 -166t348 166q110 147 110 375q0 230 -110 379q-124 168 -348 168
q-225 0 -349 -168q-111 -149 -111 -377zM1080 1587q-36 -29 -89 -29t-87.5 29t-34.5 84t34.5 83t87.5 28t89 -28t36 -83t-36 -84zM615 1587q-36 -29 -89 -29t-87.5 29t-34.5 84t34.5 83t87.5 28t89 -28t36 -83t-36 -84z" />
    <glyph glyph-name="multiply" unicode="&#xd7;" horiz-adv-x="1194" 
d="M484 587l-337 337l111 111l337 -337l337 337l111 -111l-337 -337l337 -337l-111 -111l-337 337l-337 -337l-111 111z" />
    <glyph glyph-name="Oslash" unicode="&#xd8;" horiz-adv-x="1536" 
d="M769 -16q-220 0 -384 113l-161 -209l-130 100l170 221q-155 188 -155 485q0 323 185 520q183 194 475 194q196 0 347 -92l143 188l130 -100l-145 -191q183 -198 183 -519q0 -323 -184 -518q-180 -192 -474 -192zM309 695q0 -228 111 -377q125 -166 349 -166t348 166
q110 147 110 375q0 230 -110 379q-124 168 -348 168q-225 0 -349 -168q-111 -149 -111 -377z" />
    <glyph glyph-name="Ugrave" unicode="&#xd9;" horiz-adv-x="1365" 
d="M683 156q328 0 328 403v833h200v-833q0 -295 -149 -442q-135 -133 -379 -133q-377 0 -489 311q-40 109 -40 264v833h200v-833q0 -403 329 -403zM352 1897h234l232 -367h-178z" />
    <glyph glyph-name="Uacute" unicode="&#xda;" horiz-adv-x="1365" 
d="M683 156q328 0 328 403v833h200v-833q0 -295 -149 -442q-135 -133 -379 -133q-377 0 -489 311q-40 109 -40 264v833h200v-833q0 -403 329 -403zM780 1897h234l-288 -367h-178z" />
    <glyph glyph-name="Ucircumflex" unicode="&#xdb;" horiz-adv-x="1365" 
d="M683 156q328 0 328 403v833h200v-833q0 -295 -149 -442q-135 -133 -379 -133q-377 0 -489 311q-40 109 -40 264v833h200v-833q0 -403 329 -403zM357 1745l324 230l324 -230v-192l-324 214l-324 -214v192z" />
    <glyph glyph-name="Udieresis" unicode="&#xdc;" horiz-adv-x="1365" 
d="M683 156q328 0 328 403v833h200v-833q0 -295 -149 -442q-135 -133 -379 -133q-377 0 -489 311q-40 109 -40 264v833h200v-833q0 -403 329 -403zM994 1587q-36 -29 -89 -29t-87.5 29t-34.5 84t34.5 83t87.5 28t89 -28t36 -83t-36 -84zM529 1587q-36 -29 -89 -29t-87.5 29
t-34.5 84t34.5 83t87.5 28t89 -28t36 -83t-36 -84z" />
    <glyph glyph-name="Yacute" unicode="&#xdd;" horiz-adv-x="1200" 
d="M497 606l-497 786h216l388 -622l380 622h216l-495 -784v-608h-208v606zM698 1897h234l-288 -367h-178z" />
    <glyph glyph-name="Thorn" unicode="&#xde;" 
d="M170 1392h200v-230h193q395 0 509 -234q41 -86 41 -204t-42 -202t-113 -138q-138 -104 -369 -104h-221l2 -280h-200v1392zM550 440q181 0 268 70t87 218q0 197 -183 254q-64 20 -155 20h-199v-562h182z" />
    <glyph glyph-name="germandbls" unicode="&#xdf;" horiz-adv-x="1190" 
d="M509 179q117 -31 199.5 -31t126.5 15.5t67 38.5q38 38 38 99q0 102 -128 171l-89 48q-127 67 -163.5 106.5t-50 78.5t-13.5 88.5t18 81.5t48 58.5t68 50.5l80 53q90 60 114 111q11 24 11 48t-9 49t-32 47q-55 53 -170 53q-124 0 -187 -58q-81 -74 -81 -254v-1033h-200
v1034q0 335 258 431q89 33 202.5 33t188.5 -25t123 -67q94 -80 94 -204q0 -150 -137 -248l-87 -61q-46 -30 -74 -51.5t-28 -40.5t3 -30t12 -22q19 -23 75 -55l95 -55q139 -80 184 -130q83 -92 83 -208q0 -132 -100 -217q-115 -100 -331 -100q-80 0 -208 18v177z" />
    <glyph glyph-name="agrave" unicode="&#xe0;" horiz-adv-x="1194" 
d="M148.5 318q-19.5 77 -19.5 201t53.5 228.5t139.5 171.5q167 129 415 129q129 0 195 -6l97 -10v-1032h-180l-8 119q-60 -80 -183 -119q-47 -15 -96.5 -15t-97.5 10t-95.5 33t-90.5 61.5t-76.5 95t-53 133.5zM829 885q-64 8 -127.5 8t-135.5 -22.5t-123 -70.5
q-106 -100 -106 -305q0 -194 91 -287q69 -69 166 -69q125 0 206 91q20 23 29 41v614zM353 1621h234l232 -367h-178z" />
    <glyph glyph-name="aacute" unicode="&#xe1;" horiz-adv-x="1194" 
d="M148.5 318q-19.5 77 -19.5 201t53.5 228.5t139.5 171.5q167 129 415 129q129 0 195 -6l97 -10v-1032h-180l-8 119q-60 -80 -183 -119q-47 -15 -96.5 -15t-97.5 10t-95.5 33t-90.5 61.5t-76.5 95t-53 133.5zM829 885q-64 8 -127.5 8t-135.5 -22.5t-123 -70.5
q-106 -100 -106 -305q0 -194 91 -287q69 -69 166 -69q125 0 206 91q20 23 29 41v614zM824 1621h234l-288 -367h-178z" />
    <glyph glyph-name="acircumflex" unicode="&#xe2;" horiz-adv-x="1194" 
d="M148.5 318q-19.5 77 -19.5 201t53.5 228.5t139.5 171.5q167 129 415 129q129 0 195 -6l97 -10v-1032h-180l-8 119q-60 -80 -183 -119q-47 -15 -96.5 -15t-97.5 10t-95.5 33t-90.5 61.5t-76.5 95t-53 133.5zM829 885q-64 8 -127.5 8t-135.5 -22.5t-123 -70.5
q-106 -100 -106 -305q0 -194 91 -287q69 -69 166 -69q125 0 206 91q20 23 29 41v614zM356 1414l324 230l324 -230v-192l-324 214l-324 -214v192z" />
    <glyph glyph-name="atilde" unicode="&#xe3;" horiz-adv-x="1194" 
d="M148.5 318q-19.5 77 -19.5 201t53.5 228.5t139.5 171.5q167 129 415 129q129 0 195 -6l97 -10v-1032h-180l-8 119q-60 -80 -183 -119q-47 -15 -96.5 -15t-97.5 10t-95.5 33t-90.5 61.5t-76.5 95t-53 133.5zM829 885q-64 8 -127.5 8t-135.5 -22.5t-123 -70.5
q-106 -100 -106 -305q0 -194 91 -287q69 -69 166 -69q125 0 206 91q20 23 29 41v614zM264 1263q0 113 69 187q68 74 167 74q80 0 168 -68l84 -64q61 -48 102 -48t65.5 27t24.5 80h152q0 -113 -69 -187q-68 -74 -167 -74q-91 0 -210 96l-42 34q-60 50 -101.5 50t-66 -27
t-24.5 -80h-152z" />
    <glyph glyph-name="adieresis" unicode="&#xe4;" horiz-adv-x="1194" 
d="M148.5 318q-19.5 77 -19.5 201t53.5 228.5t139.5 171.5q167 129 415 129q129 0 195 -6l97 -10v-1032h-180l-8 119q-60 -80 -183 -119q-47 -15 -96.5 -15t-97.5 10t-95.5 33t-90.5 61.5t-76.5 95t-53 133.5zM829 885q-64 8 -127.5 8t-135.5 -22.5t-123 -70.5
q-106 -100 -106 -305q0 -194 91 -287q69 -69 166 -69q125 0 206 91q20 23 29 41v614zM1005 1243q-36 -29 -89 -29t-87.5 29t-34.5 84t34.5 83t87.5 28t89 -28t36 -83t-36 -84zM540 1243q-36 -29 -89 -29t-87.5 29t-34.5 84t34.5 83t87.5 28t89 -28t36 -83t-36 -84z" />
    <glyph glyph-name="aring" unicode="&#xe5;" horiz-adv-x="1194" 
d="M148.5 318q-19.5 77 -19.5 201t53.5 228.5t139.5 171.5q167 129 415 129q129 0 195 -6l97 -10v-1032h-180l-8 119q-60 -80 -183 -119q-47 -15 -96.5 -15t-97.5 10t-95.5 33t-90.5 61.5t-76.5 95t-53 133.5zM829 885q-64 8 -127.5 8t-135.5 -22.5t-123 -70.5
q-106 -100 -106 -305q0 -194 91 -287q69 -69 166 -69q125 0 206 91q20 23 29 41v614zM678 1221q-58 0 -108 21t-88 57q-80 77 -80 190q0 112 80.5 190.5t195.5 78.5t196 -78q81 -80 81 -191q0 -112 -81 -190q-82 -78 -196 -78zM678 1342q58 0 98.5 42.5t40.5 88t-11 72.5
t-30 47q-39 43 -98 43q-57 0 -98 -43q-40 -42 -40 -88.5t10.5 -73t29.5 -46.5q41 -42 98 -42z" />
    <glyph glyph-name="ae" unicode="&#xe6;" horiz-adv-x="1703" 
d="M1269 -15q-293 0 -417 200q-65 -100 -162 -150t-244 -50q-125 0 -228 73q-126 90 -126 265t175 261q148 73 385 73h116v44q0 85 -62.5 136.5t-196.5 51.5q-166 0 -269 -25q-27 -7 -52 -12v159q148 37 344 37q272 0 360 -140q98 101 244 131q43 9 112 9t142 -32t122 -92
q99 -120 99 -336v-78h-655q0 -255 159 -332q61 -29 196 -29t245 31v-169q-110 -26 -287 -26zM1411 657q0 167 -113 220q-38 18 -91 18q-104 0 -179 -73q-72 -70 -72 -165h455zM861 871l1 2q-1 0 -1 -2zM318.5 414q-26.5 -36 -26.5 -89.5t17.5 -88.5t45.5 -56q53 -41 115 -41
t115.5 15.5t98.5 49.5q101 78 101 222v83h-133q-172 0 -239.5 -29.5t-94 -65.5z" />
    <glyph glyph-name="ccedilla" unicode="&#xe7;" horiz-adv-x="1022" 
d="M717 -275q0 56 -112 56h-120v224q-176 44 -275 179q-101 137 -101 344q0 249 181 392q162 128 398 128q146 0 200 -10v-178q-84 27 -191.5 27t-178.5 -29.5t-116 -79.5q-85 -95 -85 -250q0 -262 189 -349q67 -31 131 -31t98.5 3t65.5 8q66 11 95 23v-179
q-60 -19 -228 -19l-39 1v-76h34q155 0 202 -99q16 -34 16 -84t-25 -94.5t-68 -75.5q-89 -65 -218 -65q-67 0 -101 8v139q45 -9 87 -9q161 0 161 96z" />
    <glyph glyph-name="egrave" unicode="&#xe8;" horiz-adv-x="1025" 
d="M637 -16q-566 0 -566 553q0 238 157 381q141 130 322 130q197 0 308 -132q103 -123 103 -329v-78h-682q0 -283 231 -346q55 -15 169.5 -15t224.5 31v-169q-110 -26 -267 -26zM761 656q0 96 -53 162q-62 76 -171 76q-115 0 -187 -73q-66 -68 -66 -165h477zM260 1621h234
l232 -367h-178z" />
    <glyph glyph-name="eacute" unicode="&#xe9;" horiz-adv-x="1025" 
d="M637 -16q-566 0 -566 553q0 238 157 381q141 130 322 130q197 0 308 -132q103 -123 103 -329v-78h-682q0 -283 231 -346q55 -15 169.5 -15t224.5 31v-169q-110 -26 -267 -26zM761 656q0 96 -53 162q-62 76 -171 76q-115 0 -187 -73q-66 -68 -66 -165h477zM732 1621h234
l-288 -367h-178z" />
    <glyph glyph-name="ecircumflex" unicode="&#xea;" horiz-adv-x="1025" 
d="M637 -16q-566 0 -566 553q0 238 157 381q141 130 322 130q197 0 308 -132q103 -123 103 -329v-78h-682q0 -283 231 -346q55 -15 169.5 -15t224.5 31v-169q-110 -26 -267 -26zM761 656q0 96 -53 162q-62 76 -171 76q-115 0 -187 -73q-66 -68 -66 -165h477zM263 1414
l324 230l324 -230v-192l-324 214l-324 -214v192z" />
    <glyph glyph-name="edieresis" unicode="&#xeb;" horiz-adv-x="1025" 
d="M637 -16q-566 0 -566 553q0 238 157 381q141 130 322 130q197 0 308 -132q103 -123 103 -329v-78h-682q0 -283 231 -346q55 -15 169.5 -15t224.5 31v-169q-110 -26 -267 -26zM761 656q0 96 -53 162q-62 76 -171 76q-115 0 -187 -73q-66 -68 -66 -165h477zM912 1243
q-36 -29 -89 -29t-87.5 29t-34.5 84t34.5 83t87.5 28t89 -28t36 -83t-36 -84zM447 1243q-36 -29 -89 -29t-87.5 29t-34.5 84t34.5 83t87.5 28t89 -28t36 -83t-36 -84z" />
    <glyph glyph-name="igrave" unicode="&#xec;" horiz-adv-x="509" 
d="M154 1032h200v-1032h-200v1032zM-70 1621h234l232 -367h-178z" />
    <glyph glyph-name="iacute" unicode="&#xed;" horiz-adv-x="509" 
d="M154 1032h200v-1032h-200v1032zM401 1621h234l-288 -367h-178z" />
    <glyph glyph-name="icircumflex" unicode="&#xee;" horiz-adv-x="509" 
d="M154 1032h200v-1032h-200v1032zM-67 1414l324 230l324 -230v-192l-324 214l-324 -214v192z" />
    <glyph glyph-name="idieresis" unicode="&#xef;" horiz-adv-x="509" 
d="M154 1032h200v-1032h-200v1032zM582 1243q-36 -29 -89 -29t-87.5 29t-34.5 84t34.5 83t87.5 28t89 -28t36 -83t-36 -84zM117 1243q-36 -29 -89 -29t-87.5 29t-34.5 84t34.5 83t87.5 28t89 -28t36 -83t-36 -84z" />
    <glyph glyph-name="eth" unicode="&#xf0;" horiz-adv-x="1198" 
d="M856 1267q247 -277 247 -701q0 -257 -139 -419q-141 -163 -363 -163q-209 0 -350 125q-151 133 -151 349q0 214 151 346q138 121 332 121q151 0 251 -66q37 -25 63 -62h4q-39 225 -214 398l-269 -115l-47 144l184 79q-112 78 -262 140l177 87q156 -63 265 -150l269 115
l47 -145zM308 460q0 -61 17 -118.5t53 -102.5q78 -100 223 -100q151 0 234 109q68 90 68 211q0 126 -79 213q-85 92 -223 92q-143 0 -221 -91q-72 -84 -72 -213z" />
    <glyph glyph-name="ntilde" unicode="&#xf1;" 
d="M620 876q-149 0 -265 -101v-775h-200v1032h185l14 -112q163 128 337 128q184 0 270 -110q90 -116 90 -374v-564h-200v564q0 248 -134 296q-43 16 -97 16zM184 1263q0 113 69 187q68 74 167 74q80 0 168 -68l84 -64q61 -48 102 -48t65.5 27t24.5 80h152q0 -113 -69 -187
q-68 -74 -167 -74q-91 0 -210 96l-42 34q-60 50 -101.5 50t-66 -27t-24.5 -80h-152z" />
    <glyph glyph-name="ograve" unicode="&#xf2;" horiz-adv-x="1194" 
d="M88 518q0 243 155 394q145 141 359 141q210 0 351 -141q150 -150 150 -394q0 -243 -151 -392q-143 -142 -351 -142q-211 0 -358 142q-155 149 -155 392zM296 518q0 -256 164 -348q58 -32 139 -32t137 32.5t92 85.5q67 102 67 262q0 254 -161 348q-56 33 -134 33
t-135.5 -32.5t-94.5 -85.5q-74 -104 -74 -263zM268 1621h234l232 -367h-178z" />
    <glyph glyph-name="oacute" unicode="&#xf3;" horiz-adv-x="1194" 
d="M88 518q0 243 155 394q145 141 359 141q210 0 351 -141q150 -150 150 -394q0 -243 -151 -392q-143 -142 -351 -142q-211 0 -358 142q-155 149 -155 392zM296 518q0 -256 164 -348q58 -32 139 -32t137 32.5t92 85.5q67 102 67 262q0 254 -161 348q-56 33 -134 33
t-135.5 -32.5t-94.5 -85.5q-74 -104 -74 -263zM740 1621h234l-288 -367h-178z" />
    <glyph glyph-name="ocircumflex" unicode="&#xf4;" horiz-adv-x="1194" 
d="M88 518q0 243 155 394q145 141 359 141q210 0 351 -141q150 -150 150 -394q0 -243 -151 -392q-143 -142 -351 -142q-211 0 -358 142q-155 149 -155 392zM296 518q0 -256 164 -348q58 -32 139 -32t137 32.5t92 85.5q67 102 67 262q0 254 -161 348q-56 33 -134 33
t-135.5 -32.5t-94.5 -85.5q-74 -104 -74 -263zM271 1414l324 230l324 -230v-192l-324 214l-324 -214v192z" />
    <glyph glyph-name="otilde" unicode="&#xf5;" horiz-adv-x="1194" 
d="M88 518q0 243 155 394q145 141 359 141q210 0 351 -141q150 -150 150 -394q0 -243 -151 -392q-143 -142 -351 -142q-211 0 -358 142q-155 149 -155 392zM296 518q0 -256 164 -348q58 -32 139 -32t137 32.5t92 85.5q67 102 67 262q0 254 -161 348q-56 33 -134 33
t-135.5 -32.5t-94.5 -85.5q-74 -104 -74 -263zM179 1263q0 113 69 187q68 74 167 74q80 0 168 -68l84 -64q61 -48 102 -48t65.5 27t24.5 80h152q0 -113 -69 -187q-68 -74 -167 -74q-91 0 -210 96l-42 34q-60 50 -101.5 50t-66 -27t-24.5 -80h-152z" />
    <glyph glyph-name="odieresis" unicode="&#xf6;" horiz-adv-x="1194" 
d="M88 518q0 243 155 394q145 141 359 141q210 0 351 -141q150 -150 150 -394q0 -243 -151 -392q-143 -142 -351 -142q-211 0 -358 142q-155 149 -155 392zM296 518q0 -256 164 -348q58 -32 139 -32t137 32.5t92 85.5q67 102 67 262q0 254 -161 348q-56 33 -134 33
t-135.5 -32.5t-94.5 -85.5q-74 -104 -74 -263zM920 1243q-36 -29 -89 -29t-87.5 29t-34.5 84t34.5 83t87.5 28t89 -28t36 -83t-36 -84zM455 1243q-36 -29 -89 -29t-87.5 29t-34.5 84t34.5 83t87.5 28t89 -28t36 -83t-36 -84z" />
    <glyph glyph-name="divide" unicode="&#xf7;" horiz-adv-x="1194" 
d="M127 673h943v-154h-943v154zM494.5 874.5q-39.5 32.5 -39.5 94t39.5 94.5t100 33t100.5 -33t40 -94.5t-40 -94t-100.5 -32.5t-100 32.5zM494.5 127.5q-39.5 32.5 -39.5 94t39.5 94.5t100 33t100.5 -33t40 -94.5t-40 -94t-100.5 -32.5t-100 32.5z" />
    <glyph glyph-name="oslash" unicode="&#xf8;" horiz-adv-x="1194" 
d="M579 -16q-123 0 -246 72l-130 -160l-127 104l132 163q-120 144 -120 355q0 243 155 394q145 141 359 141q146 0 266 -75l128 158l127 -104l-132 -164q112 -142 112 -350q0 -243 -151 -392q-143 -142 -373 -142zM296 518q0 -256 164 -348q58 -32 139 -32t137 32.5t92 85.5
q67 102 67 262q0 254 -161 348q-56 33 -134 33t-135.5 -32.5t-94.5 -85.5q-74 -104 -74 -263z" />
    <glyph glyph-name="ugrave" unicode="&#xf9;" 
d="M828 253v779h200v-1032h-180l-18 109q-148 -125 -327 -125q-190 0 -269 105q-82 107 -82 369v574h200v-564q0 -185 53 -252q47 -60 179.5 -60t243.5 97zM269 1621h234l232 -367h-178z" />
    <glyph glyph-name="uacute" unicode="&#xfa;" 
d="M828 253v779h200v-1032h-180l-18 109q-148 -125 -327 -125q-190 0 -269 105q-82 107 -82 369v574h200v-564q0 -185 53 -252q47 -60 179.5 -60t243.5 97zM741 1621h234l-288 -367h-178z" />
    <glyph glyph-name="ucircumflex" unicode="&#xfb;" 
d="M828 253v779h200v-1032h-180l-18 109q-148 -125 -327 -125q-190 0 -269 105q-82 107 -82 369v574h200v-564q0 -185 53 -252q47 -60 179.5 -60t243.5 97zM272 1414l324 230l324 -230v-192l-324 214l-324 -214v192z" />
    <glyph glyph-name="udieresis" unicode="&#xfc;" 
d="M828 253v779h200v-1032h-180l-18 109q-148 -125 -327 -125q-190 0 -269 105q-82 107 -82 369v574h200v-564q0 -185 53 -252q47 -60 179.5 -60t243.5 97zM921 1243q-36 -29 -89 -29t-87.5 29t-34.5 84t34.5 83t87.5 28t89 -28t36 -83t-36 -84zM456 1243q-36 -29 -89 -29
t-87.5 29t-34.5 84t34.5 83t87.5 28t89 -28t36 -83t-36 -84z" />
    <glyph glyph-name="yacute" unicode="&#xfd;" horiz-adv-x="1025" 
d="M112 -256q27 -8 73.5 -8t95.5 18.5t85 51.5q60 54 109 170l-424 1056h213l298 -822l267 822h211l-424 -1159q-48 -130 -133 -199q-112 -90 -299 -90q-17 0 -35 2l-37 4v154zM707 1621h234l-288 -367h-178z" />
    <glyph glyph-name="thorn" unicode="&#xfe;" horiz-adv-x="1192" 
d="M370 933q109 118 275 118q159 0 276 -105q149 -133 149 -405q0 -275 -194 -425q-167 -131 -414 -131h-50q-24 0 -44 1v-371h-200v1883h202v-565zM368 147q28 -8 110 -8t154 23t123 72q107 103 107 307q0 249 -146 329q-50 27 -104.5 27t-94.5 -14t-70 -35
q-57 -38 -79 -83v-618z" />
    <glyph glyph-name="ydieresis" unicode="&#xff;" horiz-adv-x="1025" 
d="M112 -256q27 -8 73.5 -8t95.5 18.5t85 51.5q60 54 109 170l-424 1056h213l298 -822l267 822h211l-424 -1159q-48 -130 -133 -199q-112 -90 -299 -90q-17 0 -35 2l-37 4v154zM887 1243q-36 -29 -89 -29t-87.5 29t-34.5 84t34.5 83t87.5 28t89 -28t36 -83t-36 -84z
M422 1243q-36 -29 -89 -29t-87.5 29t-34.5 84t34.5 83t87.5 28t89 -28t36 -83t-36 -84z" />
    <glyph glyph-name="Amacron" unicode="&#x100;" horiz-adv-x="1365" 
d="M614 1392h137l587 -1392h-208l-141 350h-618l-140 -350h-204zM925 510l-244 610l-245 -610h489zM409 1682h542v-152h-542v152z" />
    <glyph glyph-name="amacron" unicode="&#x101;" horiz-adv-x="1194" 
d="M148.5 318q-19.5 77 -19.5 201t53.5 228.5t139.5 171.5q167 129 415 129q129 0 195 -6l97 -10v-1032h-180l-8 119q-60 -80 -183 -119q-47 -15 -96.5 -15t-97.5 10t-95.5 33t-90.5 61.5t-76.5 95t-53 133.5zM829 885q-64 8 -127.5 8t-135.5 -22.5t-123 -70.5
q-106 -100 -106 -305q0 -194 91 -287q69 -69 166 -69q125 0 206 91q20 23 29 41v614zM409 1392h542v-152h-542v152z" />
    <glyph glyph-name="Abreve" unicode="&#x102;" horiz-adv-x="1365" 
d="M614 1392h137l587 -1392h-208l-141 350h-618l-140 -350h-204zM925 510l-244 610l-245 -610h489zM680 1530q-139 0 -236 96q-99 96 -99 231h160q0 -81 51 -132t124 -51t124 51t51 132h160q0 -135 -99 -231q-97 -96 -236 -96z" />
    <glyph glyph-name="abreve" unicode="&#x103;" horiz-adv-x="1194" 
d="M148.5 318q-19.5 77 -19.5 201t53.5 228.5t139.5 171.5q167 129 415 129q129 0 195 -6l97 -10v-1032h-180l-8 119q-60 -80 -183 -119q-47 -15 -96.5 -15t-97.5 10t-95.5 33t-90.5 61.5t-76.5 95t-53 133.5zM829 885q-64 8 -127.5 8t-135.5 -22.5t-123 -70.5
q-106 -100 -106 -305q0 -194 91 -287q69 -69 166 -69q125 0 206 91q20 23 29 41v614zM680 1200q-139 0 -236 96q-99 96 -99 231h160q0 -81 51 -132t124 -51t124 51t51 132h160q0 -135 -99 -231q-97 -96 -236 -96z" />
    <glyph glyph-name="Aogonek" unicode="&#x104;" horiz-adv-x="1365" 
d="M920 -270q0 170 200 295l-131 325h-618l-140 -350h-204l587 1392h137l587 -1392q-249 -110 -249 -242q0 -50 33.5 -83.5t96 -33.5t107.5 19v-148q-55 -22 -132 -22t-130 22t-85 56q-59 64 -59 162zM925 510l-244 610l-245 -610h489z" />
    <glyph glyph-name="aogonek" unicode="&#x105;" horiz-adv-x="1194" 
d="M1018 -488q-55 -22 -132 -22t-130 22t-85 56q-59 64 -59 162q0 118 120 226q45 40 114 79l-5 84q-60 -80 -183 -119q-47 -15 -96.5 -15t-97.5 10t-95.5 33t-90.5 61.5t-76 94.5q-73 123 -73 291t53.5 272.5t139.5 171.5q167 129 415 129q129 0 195 -6l97 -10v-1032
q-248 -110 -248 -242q0 -50 33.5 -83.5t96 -33.5t107.5 19v-148zM829 885q-64 8 -127.5 8t-135.5 -22.5t-123 -70.5q-106 -100 -106 -305q0 -194 91 -287q69 -69 166 -69q125 0 206 91q20 23 29 41v614z" />
    <glyph glyph-name="Cacute" unicode="&#x106;" 
d="M1100 8q-99 -18 -266.5 -18t-302 46t-231.5 136q-208 193 -208 538q0 225 107 390q145 223 445 284q92 18 219.5 18t204.5 -14v-191q-70 22 -216.5 22t-248.5 -36t-169 -103q-134 -131 -134 -370q0 -241 132 -382q143 -152 411 -152q157 0 257 24v-192zM839 1897h234
l-288 -367h-178z" />
    <glyph glyph-name="cacute" unicode="&#x107;" horiz-adv-x="1022" 
d="M896 3q-60 -19 -208 -19t-251.5 36t-176.5 106q-151 145 -151 402q0 249 181 392q162 128 398 128q146 0 200 -10v-178q-84 27 -191.5 27t-178.5 -29.5t-116 -79.5q-85 -95 -85 -250q0 -262 189 -349q67 -31 131 -31t98.5 3t65.5 8q66 11 95 23v-179zM757 1621h234
l-288 -367h-178z" />
    <glyph glyph-name="Ccircumflex" unicode="&#x108;" 
d="M1100 8q-99 -18 -266.5 -18t-302 46t-231.5 136q-208 193 -208 538q0 225 107 390q145 223 445 284q92 18 219.5 18t204.5 -14v-191q-70 22 -216.5 22t-248.5 -36t-169 -103q-134 -131 -134 -370q0 -241 132 -382q143 -152 411 -152q157 0 257 24v-192zM416 1745l324 230
l324 -230v-192l-324 214l-324 -214v192z" />
    <glyph glyph-name="ccircumflex" unicode="&#x109;" horiz-adv-x="1022" 
d="M896 3q-60 -19 -208 -19t-251.5 36t-176.5 106q-151 145 -151 402q0 249 181 392q162 128 398 128q146 0 200 -10v-178q-84 27 -191.5 27t-178.5 -29.5t-116 -79.5q-85 -95 -85 -250q0 -262 189 -349q67 -31 131 -31t98.5 3t65.5 8q66 11 95 23v-179zM289 1414l324 230
l324 -230v-192l-324 214l-324 -214v192z" />
    <glyph glyph-name="Cdotaccent" unicode="&#x10a;" 
d="M1100 8q-99 -18 -266.5 -18t-302 46t-231.5 136q-208 193 -208 538q0 225 107 390q145 223 445 284q92 18 219.5 18t204.5 -14v-191q-70 22 -216.5 22t-248.5 -36t-169 -103q-134 -131 -134 -370q0 -241 132 -382q143 -152 411 -152q157 0 257 24v-192zM829 1587
q-36 -29 -89 -29t-87.5 29t-34.5 84t34.5 83t87.5 28t89 -28t36 -83t-36 -84z" />
    <glyph glyph-name="cdotaccent" unicode="&#x10b;" horiz-adv-x="1022" 
d="M896 3q-60 -19 -208 -19t-251.5 36t-176.5 106q-151 145 -151 402q0 249 181 392q162 128 398 128q146 0 200 -10v-178q-84 27 -191.5 27t-178.5 -29.5t-116 -79.5q-85 -95 -85 -250q0 -262 189 -349q67 -31 131 -31t98.5 3t65.5 8q66 11 95 23v-179zM704 1243
q-36 -29 -89 -29t-87.5 29t-34.5 84t34.5 83t87.5 28t89 -28t36 -83t-36 -84z" />
    <glyph glyph-name="Ccaron" unicode="&#x10c;" 
d="M1100 8q-99 -18 -266.5 -18t-302 46t-231.5 136q-208 193 -208 538q0 225 107 390q145 223 445 284q92 18 219.5 18t204.5 -14v-191q-70 22 -216.5 22t-248.5 -36t-169 -103q-134 -131 -134 -370q0 -241 132 -382q143 -152 411 -152q157 0 257 24v-192zM416 1783v192
l324 -214l324 214v-192l-324 -230z" />
    <glyph glyph-name="ccaron" unicode="&#x10d;" horiz-adv-x="1022" 
d="M896 3q-60 -19 -208 -19t-251.5 36t-176.5 106q-151 145 -151 402q0 249 181 392q162 128 398 128q146 0 200 -10v-178q-84 27 -191.5 27t-178.5 -29.5t-116 -79.5q-85 -95 -85 -250q0 -262 189 -349q67 -31 131 -31t98.5 3t65.5 8q66 11 95 23v-179zM289 1452v192
l324 -214l324 214v-192l-324 -230z" />
    <glyph glyph-name="Dcaron" unicode="&#x10e;" horiz-adv-x="1366" 
d="M154 1391h338q342 0 542 -169q216 -181 216 -528t-210 -527q-196 -167 -538 -167h-348v1391zM1045 693q0 537 -566 537h-125v-1070h136q432 0 526 312q29 99 29 221zM314 1783v192l324 -214l324 214v-192l-324 -230z" />
    <glyph glyph-name="dcaron" unicode="&#x10f;" horiz-adv-x="1365" 
d="M1139 1043q94 0 107 125q5 42 5 98v169h172v-167q0 -200 -55 -284q-63 -98 -229 -98v157zM506.5 1017q108.5 31 189.5 31t125 -4v444h199v-1488h-179l-8 119q-61 -81 -185 -120q-48 -15 -97.5 -15t-97.5 10t-95.5 33.5t-90.5 62t-77 94.5q-72 123 -72 291t53.5 272.5
t140 171.5t195 98zM353.5 676.5q-27.5 -75.5 -27.5 -183t26 -177t65 -108.5q69 -70 166 -70q125 0 207 92q21 23 30 41v615l-20 2q-46 6 -109.5 6t-135.5 -22.5t-123 -71t-78.5 -124z" />
    <glyph glyph-name="Dcroat" unicode="&#x110;" horiz-adv-x="1366" 
d="M154 680h-125v144h125v567h338q342 0 542 -169q216 -181 216 -528t-210 -527q-196 -167 -538 -167h-348v680zM1045 693q0 537 -566 537h-125v-406h355v-144h-355v-520h136q432 0 526 312q29 99 29 221z" />
    <glyph glyph-name="dcroat" unicode="&#x111;" horiz-adv-x="1194" 
d="M137.5 318q-19.5 77 -19.5 201t53.5 229t140.5 172q167 131 414 131h50q24 0 46 -1l-3 125h-316v136h316v129h199v-129h141v-136h-141v-1175h-180l-7 119q-60 -80 -183 -119q-48 -15 -97.5 -15t-97.5 10t-95.5 33t-90.5 61.5t-76.5 95t-53 133.5zM818 889q-64 8 -127.5 8
t-135.5 -23t-123 -72q-106 -102 -106 -307q0 -194 91 -287q69 -69 166 -69q125 0 206 91q20 23 29 41v618z" />
    <glyph glyph-name="Emacron" unicode="&#x112;" 
d="M154 1392h899v-174h-699v-410h529v-168h-529v-464h699v-176h-899v1392zM344 1682h542v-152h-542v152z" />
    <glyph glyph-name="emacron" unicode="&#x113;" horiz-adv-x="1025" 
d="M637 -16q-566 0 -566 553q0 238 157 381q141 130 322 130q197 0 308 -132q103 -123 103 -329v-78h-682q0 -283 231 -346q55 -15 169.5 -15t224.5 31v-169q-110 -26 -267 -26zM761 656q0 96 -53 162q-62 76 -171 76q-115 0 -187 -73q-66 -68 -66 -165h477zM316 1392h542
v-152h-542v152z" />
    <glyph glyph-name="Ebreve" unicode="&#x114;" 
d="M154 1392h899v-174h-699v-410h529v-168h-529v-464h699v-176h-899v1392zM615 1530q-139 0 -236 96q-99 96 -99 231h160q0 -81 51 -132t124 -51t124 51t51 132h160q0 -135 -99 -231q-97 -96 -236 -96z" />
    <glyph glyph-name="ebreve" unicode="&#x115;" horiz-adv-x="1025" 
d="M637 -16q-566 0 -566 553q0 238 157 381q141 130 322 130q197 0 308 -132q103 -123 103 -329v-78h-682q0 -283 231 -346q55 -15 169.5 -15t224.5 31v-169q-110 -26 -267 -26zM761 656q0 96 -53 162q-62 76 -171 76q-115 0 -187 -73q-66 -68 -66 -165h477zM587 1200
q-139 0 -236 96q-99 96 -99 231h160q0 -81 51 -132t124 -51t124 51t51 132h160q0 -135 -99 -231q-97 -96 -236 -96z" />
    <glyph glyph-name="Edotaccent" unicode="&#x116;" 
d="M154 1392h899v-174h-699v-410h529v-168h-529v-464h699v-176h-899v1392zM703 1587q-36 -29 -89 -29t-87.5 29t-34.5 84t34.5 83t87.5 28t89 -28t36 -83t-36 -84z" />
    <glyph glyph-name="edotaccent" unicode="&#x117;" horiz-adv-x="1025" 
d="M637 -16q-566 0 -566 553q0 238 157 381q141 130 322 130q197 0 308 -132q103 -123 103 -329v-78h-682q0 -283 231 -346q55 -15 169.5 -15t224.5 31v-169q-110 -26 -267 -26zM761 656q0 96 -53 162q-62 76 -171 76q-115 0 -187 -73q-66 -68 -66 -165h477zM678 1243
q-36 -29 -89 -29t-87.5 29t-34.5 84t34.5 83t87.5 28t89 -28t36 -83t-36 -84z" />
    <glyph glyph-name="Eogonek" unicode="&#x118;" 
d="M634 -270q0 151 170 270h-650v1392h899v-174h-699v-410h529v-168h-529v-464h699v-176q-250 -111 -250 -242q0 -50 33.5 -83.5t96 -33.5t107.5 19v-148q-55 -22 -132 -22t-130 22t-85 56q-59 64 -59 162z" />
    <glyph glyph-name="eogonek" unicode="&#x119;" horiz-adv-x="1025" 
d="M634 -16q-563 2 -563 553q0 238 157 381q141 130 322 130q197 0 308 -132q103 -123 103 -329v-78h-682q0 -283 231 -346q55 -15 169.5 -15t224.5 31v-169q-1 0 -37.5 -17.5t-84.5 -50t-76 -64.5q-52 -56 -52 -113t33.5 -90.5t96 -33.5t107.5 19v-148q-55 -22 -132 -22
t-130 22t-85 56q-59 64 -59 162q0 140 149 254zM761 656q0 96 -53 162q-62 76 -171 76q-115 0 -187 -73q-66 -68 -66 -165h477z" />
    <glyph glyph-name="Ecaron" unicode="&#x11a;" 
d="M154 1392h899v-174h-699v-410h529v-168h-529v-464h699v-176h-899v1392zM290 1783v192l324 -214l324 214v-192l-324 -230z" />
    <glyph glyph-name="ecaron" unicode="&#x11b;" horiz-adv-x="1025" 
d="M637 -16q-566 0 -566 553q0 238 157 381q141 130 322 130q197 0 308 -132q103 -123 103 -329v-78h-682q0 -283 231 -346q55 -15 169.5 -15t224.5 31v-169q-110 -26 -267 -26zM761 656q0 96 -53 162q-62 76 -171 76q-115 0 -187 -73q-66 -68 -66 -165h477zM263 1452v192
l324 -214l324 214v-192l-324 -230z" />
    <glyph glyph-name="Gcircumflex" unicode="&#x11c;" horiz-adv-x="1366" 
d="M1198 14q-115 -30 -303.5 -30t-323 47t-231.5 139q-208 194 -208 540q0 226 108 390q146 223 449 284q93 18 228 18t233 -13v-192q-86 22 -245.5 22t-261.5 -36t-169 -103q-134 -131 -134 -370q0 -243 132 -389q144 -159 411 -159q62 0 115 5v513h200v-666zM411 1745
l324 230l324 -230v-192l-324 214l-324 -214v192z" />
    <glyph glyph-name="gcircumflex" unicode="&#x11d;" horiz-adv-x="1194" 
d="M742 -394q-87 -22 -223.5 -22t-199.5 20v178q79 -34 193.5 -34.5t168.5 15.5t85 52q56 65 56 235v53q-76 -76 -200 -106q-50 -12 -100 -12t-97.5 11t-94.5 35.5t-90 64t-76 98.5q-74 128 -74 315q-2 173 100 304q88 114 242 177q140 58 303 58t287 -16v-982
q0 -374 -280 -444zM822 886q-64 8 -126 8t-139 -23t-135 -70q-127 -103 -127 -292q0 -205 99 -299q74 -71 181 -71q129 0 217 91q21 23 30 41v615zM276 1414l324 230l324 -230v-192l-324 214l-324 -214v192z" />
    <glyph glyph-name="Gbreve" unicode="&#x11e;" horiz-adv-x="1366" 
d="M1198 14q-115 -30 -303.5 -30t-323 47t-231.5 139q-208 194 -208 540q0 226 108 390q146 223 449 284q93 18 228 18t233 -13v-192q-86 22 -245.5 22t-261.5 -36t-169 -103q-134 -131 -134 -370q0 -243 132 -389q144 -159 411 -159q62 0 115 5v513h200v-666zM736 1530
q-139 0 -236 96q-99 96 -99 231h160q0 -81 51 -132t124 -51t124 51t51 132h160q0 -135 -99 -231q-97 -96 -236 -96z" />
    <glyph glyph-name="gbreve" unicode="&#x11f;" horiz-adv-x="1194" 
d="M742 -394q-87 -22 -223.5 -22t-199.5 20v178q79 -34 193.5 -34.5t168.5 15.5t85 52q56 65 56 235v53q-76 -76 -200 -106q-50 -12 -100 -12t-97.5 11t-94.5 35.5t-90 64t-76 98.5q-74 128 -74 315q-2 173 100 304q88 114 242 177q140 58 303 58t287 -16v-982
q0 -374 -280 -444zM822 886q-64 8 -126 8t-139 -23t-135 -70q-127 -103 -127 -292q0 -205 99 -299q74 -71 181 -71q129 0 217 91q21 23 30 41v615zM600 1200q-139 0 -236 96q-99 96 -99 231h160q0 -81 51 -132t124 -51t124 51t51 132h160q0 -135 -99 -231q-97 -96 -236 -96z
" />
    <glyph glyph-name="Gdotaccent" unicode="&#x120;" horiz-adv-x="1366" 
d="M1198 14q-115 -30 -303.5 -30t-323 47t-231.5 139q-208 194 -208 540q0 226 108 390q146 223 449 284q93 18 228 18t233 -13v-192q-86 22 -245.5 22t-261.5 -36t-169 -103q-134 -131 -134 -370q0 -243 132 -389q144 -159 411 -159q62 0 115 5v513h200v-666zM824 1587
q-36 -29 -89 -29t-87.5 29t-34.5 84t34.5 83t87.5 28t89 -28t36 -83t-36 -84z" />
    <glyph glyph-name="gdotaccent" unicode="&#x121;" horiz-adv-x="1194" 
d="M742 -394q-87 -22 -223.5 -22t-199.5 20v178q79 -34 193.5 -34.5t168.5 15.5t85 52q56 65 56 235v53q-76 -76 -200 -106q-50 -12 -100 -12t-97.5 11t-94.5 35.5t-90 64t-76 98.5q-74 128 -74 315q-2 173 100 304q88 114 242 177q140 58 303 58t287 -16v-982
q0 -374 -280 -444zM822 886q-64 8 -126 8t-139 -23t-135 -70q-127 -103 -127 -292q0 -205 99 -299q74 -71 181 -71q129 0 217 91q21 23 30 41v615zM691 1243q-36 -29 -89 -29t-87.5 29t-34.5 84t34.5 83t87.5 28t89 -28t36 -83t-36 -84z" />
    <glyph glyph-name="Gcommaaccent" unicode="&#x122;" horiz-adv-x="1366" 
d="M1198 14q-115 -30 -303.5 -30t-323 47t-231.5 139q-208 194 -208 540q0 226 108 390q146 223 449 284q93 18 228 18t233 -13v-192q-86 22 -245.5 22t-261.5 -36t-169 -103q-134 -131 -134 -370q0 -243 132 -389q144 -159 411 -159q62 0 115 5v513h200v-666zM919 -103
v-114q0 -171 -66 -234q-61 -59 -223 -59v133q59 0 81 26q38 45 38 134v114h170z" />
    <glyph glyph-name="gcommaaccent" unicode="&#x123;" horiz-adv-x="1194" 
d="M742 -394q-87 -22 -223.5 -22t-199.5 20v178q79 -34 193.5 -34.5t168.5 15.5t85 52q56 65 56 235v53q-76 -76 -200 -106q-50 -12 -100 -12t-97.5 11t-94.5 35.5t-90 64t-76 98.5q-74 128 -74 315q-2 173 100 304q88 114 242 177q140 58 303 58t287 -16v-982
q0 -374 -280 -444zM822 886q-64 8 -126 8t-139 -23t-135 -70q-127 -103 -127 -292q0 -205 99 -299q74 -71 181 -71q129 0 217 91q21 23 30 41v615zM553.021 1187.99v113.992q0 170.99 65.9961 233.986q60.9961 58.9961 222.986 58.9961v-132.992
q-58.9961 0 -80.9951 -25.998q-37.9971 -44.9971 -37.9971 -133.992v-113.992h-169.99z" />
    <glyph glyph-name="Hcircumflex" unicode="&#x124;" horiz-adv-x="1366" 
d="M154 1392h200v-550h658v550h200v-1392h-200v666h-658v-666h-200v1392zM440 1745l324 230l324 -230v-192l-324 214l-324 -214v192z" />
    <glyph glyph-name="hcircumflex" unicode="&#x125;" horiz-adv-x="1194" 
d="M619 876q-148 0 -264 -101v-775h-200v1488h200v-567q162 127 335 127q185 0 271 -110q90 -116 90 -374v-564h-200v564q0 248 -135 296q-43 16 -97 16zM324 1745l324 230l324 -230v-192l-324 214l-324 -214v192z" />
    <glyph glyph-name="Hbar" unicode="&#x126;" horiz-adv-x="1366" 
d="M154 1032h-138v144h138v216h200v-216h658v216h200v-216h148v-144h-148v-1032h-200v666h-658v-666h-200v1032zM1012 842v190h-658v-190h658z" />
    <glyph glyph-name="hbar" unicode="&#x127;" horiz-adv-x="1197" 
d="M619 879q-148 0 -264 -101v-778h-200v1173h-127v136h127v131h200v-131h321v-136h-321v-249q162 127 335 127q185 0 271 -111q90 -114 90 -373v-567h-200v567q0 248 -135 297q-43 15 -97 15z" />
    <glyph glyph-name="Itilde" unicode="&#x128;" horiz-adv-x="512" 
d="M156 1392h200v-1392h-200v1392zM-158 1602q0 113 69 188q68 73 167 73q80 0 168 -69l84 -64q61 -47 102 -47t65.5 27t24.5 80h152q0 -113 -69 -188q-68 -73 -167 -73q-91 0 -210 96l-41 33q-61 51 -102.5 51t-66 -27t-24.5 -80h-152z" />
    <glyph glyph-name="itilde" unicode="&#x129;" horiz-adv-x="509" 
d="M154 1032h200v-1032h-200v1032zM-159 1263q0 113 69 187q68 74 167 74q80 0 168 -68l84 -64q61 -48 102 -48t65.5 27t24.5 80h152q0 -113 -69 -187q-68 -74 -167 -74q-91 0 -210 96l-42 34q-60 50 -101.5 50t-66 -27t-24.5 -80h-152z" />
    <glyph glyph-name="Imacron" unicode="&#x12a;" horiz-adv-x="512" 
d="M156 1392h200v-1392h-200v1392zM-14 1682h542v-152h-542v152z" />
    <glyph glyph-name="imacron" unicode="&#x12b;" horiz-adv-x="509" 
d="M154 1032h200v-1032h-200v1032zM-14 1392h542v-152h-542v152z" />
    <glyph glyph-name="Ibreve" unicode="&#x12c;" horiz-adv-x="512" 
d="M156 1392h200v-1392h-200v1392zM257 1530q-139 0 -236 96q-99 96 -99 231h160q0 -81 51 -132t124 -51t124 51t51 132h160q0 -135 -99 -231q-97 -96 -236 -96z" />
    <glyph glyph-name="ibreve" unicode="&#x12d;" horiz-adv-x="509" 
d="M154 1032h200v-1032h-200v1032zM257 1200q-139 0 -236 96q-99 96 -99 231h160q0 -81 51 -132t124 -51t124 51t51 132h160q0 -135 -99 -231q-97 -96 -236 -96z" />
    <glyph glyph-name="Iogonek" unicode="&#x12e;" horiz-adv-x="512" 
d="M345 -488q-55 -22 -132 -22t-130 22t-85 56q-59 64 -59 162q0 119 112 223q42 39 105 75v1364h200v-1392q-248 -110 -248 -242q0 -82 71 -108q25 -9 73 -9t93 19v-148z" />
    <glyph glyph-name="iogonek" unicode="&#x12f;" horiz-adv-x="513" 
d="M350.5 1244.5q-37.5 -30.5 -93.5 -30.5t-92.5 30.5t-36.5 88t36.5 87.5t92.5 30t93.5 -30t37.5 -87.5t-37.5 -88zM-59 -270q0 163 213 294v1008h200v-1032q-244 -108 -244 -242q0 -50 33.5 -83.5t96 -33.5t107.5 19v-148q-55 -22 -132 -22t-130 22t-85 56q-59 64 -59 162
z" />
    <glyph glyph-name="Idotaccent" unicode="&#x130;" horiz-adv-x="512" 
d="M156 1392h200v-1392h-200v1392zM345 1587q-36 -29 -89 -29t-87.5 29t-34.5 84t34.5 83t87.5 28t89 -28t36 -83t-36 -84z" />
    <glyph glyph-name="dotlessi" unicode="&#x131;" horiz-adv-x="509" 
d="M154 1032h200v-1032h-200v1032z" />
    <glyph glyph-name="IJ" unicode="&#x132;" horiz-adv-x="1538" 
d="M156 1392h200v-1392h-200v1392zM758 -10q-42 0 -117 5v193q40 -12 144.5 -12t176 29t119.5 92q97 127 97 407v511h-513v177h713v-688q0 -542 -341 -670q-117 -44 -279 -44z" />
    <glyph glyph-name="ij" unicode="&#x133;" horiz-adv-x="1021" 
d="M352.5 1244.5q-37.5 -30.5 -93.5 -30.5t-92.5 30.5t-36.5 88t36.5 87.5t92.5 30t93.5 -30t37.5 -87.5t-37.5 -88zM156 1032h200v-1032h-200v1032zM859.5 1245.5q-37.5 -30.5 -93.5 -30.5t-92.5 30.5t-36.5 88t36.5 87.5t92.5 30t93.5 -30t37.5 -87.5t-37.5 -88zM665 1032
h200v-1052q0 -271 -170 -361q-67 -35 -173 -35q-17 0 -35 2l-37 4v154q27 -8 61 -8t64.5 12t50.5 40q39 56 39 193v1051z" />
    <glyph glyph-name="Jcircumflex" unicode="&#x134;" horiz-adv-x="1024" 
d="M246 -10q-42 0 -117 5v193q40 -12 144.5 -12t176 29t119.5 92q97 127 97 407v511h-513v177h713v-688q0 -542 -341 -670q-117 -44 -279 -44zM185 1745l324 230l324 -230v-192l-324 214l-324 -214v192z" />
    <glyph glyph-name="jcircumflex" unicode="&#x135;" horiz-adv-x="512" 
d="M156 1032h200v-1054q0 -271 -170 -361q-67 -35 -173 -35q-17 0 -35 2l-37 4v154q27 -8 61 -8t64.5 12t50.5 40q39 56 39 193v1053zM-63 1414l324 230l324 -230v-192l-324 214l-324 -214v192z" />
    <glyph glyph-name="Kcommaaccent" unicode="&#x136;" 
d="M154 1392h199v-652l536 652h250l-571 -670l615 -722h-248l-582 694v-694h-199v1392zM753 -103v-114q0 -171 -66 -234q-61 -59 -223 -59v133q59 0 81 26q38 45 38 134v114h170z" />
    <glyph glyph-name="kcommaaccent" unicode="&#x137;" horiz-adv-x="1024" 
d="M170 1487h200v-917l418 462h238l-445 -468l468 -564h-244l-435 526v-526h-200v1487zM692 -103v-114q0 -171 -66 -234q-61 -59 -223 -59v133q59 0 81 26q38 45 38 134v114h170z" />
    <glyph glyph-name="kgreenlandic" unicode="&#x138;" horiz-adv-x="1024" 
d="M170 1033h200v-463l418 462h238l-445 -468l468 -564h-244l-435 526v-526h-200v1033z" />
    <glyph glyph-name="Lacute" unicode="&#x139;" horiz-adv-x="1026" 
d="M154 1392h200v-1216h596v-176h-796v1392zM564 1897h234l-288 -367h-178z" />
    <glyph glyph-name="lacute" unicode="&#x13a;" horiz-adv-x="683" 
d="M198 1488h200v-1097q0 -198 90 -233q30 -12 64 -12t61 8v-154l-37 -4q-18 -2 -35 -2q-192 0 -277 126q-66 99 -66 270v1098zM264 1897h234l-288 -367h-178z" />
    <glyph glyph-name="Lcommaaccent" unicode="&#x13b;" horiz-adv-x="1026" 
d="M154 1392h200v-1216h596v-176h-796v1392zM637 -103v-114q0 -171 -66 -234q-61 -59 -223 -59v133q59 0 81 26q38 45 38 134v114h170z" />
    <glyph glyph-name="lcommaaccent" unicode="&#x13c;" horiz-adv-x="683" 
d="M198 1488h200v-1097q0 -198 90 -233q30 -12 64 -12t61 8v-154l-37 -4q-18 -2 -35 -2q-192 0 -277 126q-66 99 -66 270v1098zM498 -103v-114q0 -171 -66 -234q-61 -59 -223 -59v133q59 0 81 26q38 45 38 134v114h170z" />
    <glyph glyph-name="Lcaron" unicode="&#x13d;" horiz-adv-x="1026" 
d="M510 1043q94 0 108 125q4 42 4 98v169h172v-167q0 -200 -54 -284q-64 -98 -230 -98v157zM154 1392h200v-1216h596v-176h-796v1392z" />
    <glyph glyph-name="lcaron" unicode="&#x13e;" horiz-adv-x="853" 
d="M510 1043q94 0 108 125q4 42 4 98v169h172v-167q0 -200 -54 -284q-64 -98 -230 -98v157zM198 1488h200v-1097q0 -198 90 -233q30 -12 64 -12t61 8v-154l-37 -4q-18 -2 -35 -2q-192 0 -277 126q-66 99 -66 270v1098z" />
    <glyph glyph-name="Ldot" unicode="&#x13f;" horiz-adv-x="1026" 
d="M729.5 679q-34.5 29 -34.5 84t34.5 83t87.5 28t89 -28t36 -83t-36 -84t-89 -29t-87.5 29zM154 1392h200v-1216h596v-176h-796v1392z" />
    <glyph glyph-name="ldot" unicode="&#x140;" horiz-adv-x="856" 
d="M760 682q-36 -29 -89 -29t-87.5 29t-34.5 84t34.5 83t87.5 28t89 -28t36 -83t-36 -84zM198 1488h200v-1097q0 -198 90 -233q30 -12 64 -12t61 8v-154l-37 -4q-18 -2 -35 -2q-192 0 -277 126q-66 99 -66 270v1098z" />
    <glyph glyph-name="Lslash" unicode="&#x141;" horiz-adv-x="1026" 
d="M154 555l-130 -76v168l130 76v669h200v-551l326 191v-169l-326 -191v-496h596v-176h-796v555z" />
    <glyph glyph-name="lslash" unicode="&#x142;" horiz-adv-x="683" 
d="M198 705l-180 -118v172l180 118v611h200v-479l186 122v-173l-186 -122v-445q0 -198 90 -233q30 -12 64 -12t61 8v-154l-37 -4q-18 -2 -35 -2q-192 0 -277 126q-66 99 -66 270v315z" />
    <glyph glyph-name="Nacute" unicode="&#x143;" horiz-adv-x="1365" 
d="M153 1392h144l727 -1027l-11 144v883h198v-1392h-143l-607 853l-121 174l11 -174v-853h-198v1392zM796 1897h234l-288 -367h-178z" />
    <glyph glyph-name="nacute" unicode="&#x144;" 
d="M620 876q-149 0 -265 -101v-775h-200v1032h185l14 -112q163 128 337 128q184 0 270 -110q90 -116 90 -374v-564h-200v564q0 248 -134 296q-43 16 -97 16zM744 1621h234l-288 -367h-178z" />
    <glyph glyph-name="Ncommaaccent" unicode="&#x145;" horiz-adv-x="1365" 
d="M153 1392h144l727 -1027l-11 144v883h198v-1392h-143l-607 853l-121 174l11 -174v-853h-198v1392zM783 -103v-114q0 -171 -66 -234q-61 -59 -223 -59v133q59 0 81 26q38 45 38 134v114h170z" />
    <glyph glyph-name="ncommaaccent" unicode="&#x146;" 
d="M620 876q-149 0 -265 -101v-775h-200v1032h185l14 -112q163 128 337 128q184 0 270 -110q90 -116 90 -374v-564h-200v564q0 248 -134 296q-43 16 -97 16zM691 -103v-114q0 -171 -66 -234q-61 -59 -223 -59v133q59 0 81 26q38 45 38 134v114h170z" />
    <glyph glyph-name="Ncaron" unicode="&#x147;" horiz-adv-x="1365" 
d="M153 1392h144l727 -1027l-11 144v883h198v-1392h-143l-607 853l-121 174l11 -174v-853h-198v1392zM373 1783v192l324 -214l324 214v-192l-324 -230z" />
    <glyph glyph-name="ncaron" unicode="&#x148;" 
d="M620 876q-149 0 -265 -101v-775h-200v1032h185l14 -112q163 128 337 128q184 0 270 -110q90 -116 90 -374v-564h-200v564q0 248 -134 296q-43 16 -97 16zM276 1452v192l324 -214l324 214v-192l-324 -230z" />
    <glyph glyph-name="Eng" unicode="&#x14a;" horiz-adv-x="1365" 
d="M153 1392h144l727 -1027l-11 144v883h198v-1412q0 -271 -171 -361q-66 -35 -172 -35q-17 0 -35 2l-37 4v154q27 -8 61 -8t64.5 12t50.5 40q39 56 39 193v99l-550 773l-121 174l11 -174v-853h-198v1392z" />
    <glyph glyph-name="eng" unicode="&#x14b;" 
d="M620 879q-148 0 -264 -101v-778h-200v1032h180l18 -109q115 93 258 120q42 8 106 8t131.5 -26.5t112.5 -84.5q90 -114 90 -373v-567h-1v-22q0 -271 -171 -361q-66 -35 -172 -35q-17 0 -35 2l-37 4v154q27 -8 61 -8t64.5 12t50.5 40q39 56 39 193v361h1v227
q0 248 -135 297q-43 15 -97 15z" />
    <glyph glyph-name="Omacron" unicode="&#x14c;" horiz-adv-x="1536" 
d="M109 694q0 163 49 295t136 225q183 194 475 194q293 0 474 -194q184 -197 184 -520t-184 -518q-180 -192 -474 -192q-293 0 -475 192q-185 196 -185 518zM309 695q0 -228 111 -377q125 -166 349 -166t348 166q110 147 110 375q0 230 -110 379q-124 168 -348 168
q-225 0 -349 -168q-111 -149 -111 -377zM497 1682h542v-152h-542v152z" />
    <glyph glyph-name="omacron" unicode="&#x14d;" horiz-adv-x="1194" 
d="M88 518q0 243 155 394q145 141 359 141q210 0 351 -141q150 -150 150 -394q0 -243 -151 -392q-143 -142 -351 -142q-211 0 -358 142q-155 149 -155 392zM296 518q0 -256 164 -348q58 -32 139 -32t137 32.5t92 85.5q67 102 67 262q0 254 -161 348q-56 33 -134 33
t-135.5 -32.5t-94.5 -85.5q-74 -104 -74 -263zM324 1392h542v-152h-542v152z" />
    <glyph glyph-name="Obreve" unicode="&#x14e;" horiz-adv-x="1536" 
d="M109 694q0 163 49 295t136 225q183 194 475 194q293 0 474 -194q184 -197 184 -520t-184 -518q-180 -192 -474 -192q-293 0 -475 192q-185 196 -185 518zM309 695q0 -228 111 -377q125 -166 349 -166t348 166q110 147 110 375q0 230 -110 379q-124 168 -348 168
q-225 0 -349 -168q-111 -149 -111 -377zM768 1530q-139 0 -236 96q-99 96 -99 231h160q0 -81 51 -132t124 -51t124 51t51 132h160q0 -135 -99 -231q-97 -96 -236 -96z" />
    <glyph glyph-name="obreve" unicode="&#x14f;" horiz-adv-x="1194" 
d="M88 518q0 243 155 394q145 141 359 141q210 0 351 -141q150 -150 150 -394q0 -243 -151 -392q-143 -142 -351 -142q-211 0 -358 142q-155 149 -155 392zM296 518q0 -256 164 -348q58 -32 139 -32t137 32.5t92 85.5q67 102 67 262q0 254 -161 348q-56 33 -134 33
t-135.5 -32.5t-94.5 -85.5q-74 -104 -74 -263zM595 1200q-139 0 -236 96q-99 96 -99 231h160q0 -81 51 -132t124 -51t124 51t51 132h160q0 -135 -99 -231q-97 -96 -236 -96z" />
    <glyph glyph-name="Ohungarumlaut" unicode="&#x150;" horiz-adv-x="1536" 
d="M109 694q0 163 49 295t136 225q183 194 475 194q293 0 474 -194q184 -197 184 -520t-184 -518q-180 -192 -474 -192q-293 0 -475 192q-185 196 -185 518zM309 695q0 -228 111 -377q125 -166 349 -166t348 166q110 147 110 375q0 230 -110 379q-124 168 -348 168
q-225 0 -349 -168q-111 -149 -111 -377zM1110 1897h226l-288 -367h-170zM684 1897h226l-288 -367h-170z" />
    <glyph glyph-name="ohungarumlaut" unicode="&#x151;" horiz-adv-x="1194" 
d="M88 518q0 243 155 394q145 141 359 141q210 0 351 -141q150 -150 150 -394q0 -243 -151 -392q-143 -142 -351 -142q-211 0 -358 142q-155 149 -155 392zM296 518q0 -256 164 -348q58 -32 139 -32t137 32.5t92 85.5q67 102 67 262q0 254 -161 348q-56 33 -134 33
t-135.5 -32.5t-94.5 -85.5q-74 -104 -74 -263zM971 1621h226l-288 -367h-170zM545 1621h226l-288 -367h-170z" />
    <glyph glyph-name="OE" unicode="&#x152;" horiz-adv-x="1702" 
d="M109 694q0 163 56 292.5t155 219.5q205 186 531 186h766v-174h-566v-410h396v-168h-396v-464h566v-176h-766q-328 0 -531 184q-211 190 -211 510zM309 695q0 -227 131 -369q146 -158 411 -158v1055q-279 0 -421 -159q-121 -137 -121 -369z" />
    <glyph glyph-name="oe" unicode="&#x153;" horiz-adv-x="1700" 
d="M1304 -16q-298 0 -423 186q-62 -91 -153 -138.5t-190 -47.5t-182.5 36.5t-146.5 105.5q-138 150 -138 392q0 244 139 394q129 141 322 141q226 0 353 -192q123 187 340 187q196 0 303 -132q100 -121 100 -329v-78h-647q0 -284 207 -346q50 -15 161.5 -15t221.5 31v-169
q-110 -26 -267 -26zM413 170q48 -32 117.5 -32t118 32.5t78.5 85.5q58 104 58 262t-61 263q-67 118 -192 118q-126 0 -194 -118q-59 -103 -59 -263q0 -257 134 -348zM1428 656q0 158 -116 217q-42 21 -97.5 21t-98.5 -20t-73 -53q-62 -68 -62 -165h447z" />
    <glyph glyph-name="Racute" unicode="&#x154;" 
d="M170 1392h395q395 0 509 -234q41 -86 41 -193.5t-28.5 -181.5t-79.5 -127q-98 -102 -270 -134q71 -219 241 -302q56 -28 94 -30q64 -2 90 4v-194h-45q-225 0 -383 160q-139 139 -187 350h-177v-510h-200v1392zM552 670q181 0 268 70t87 218q0 197 -183 254
q-64 20 -155 20h-199v-562h182zM690 1897h234l-288 -367h-178z" />
    <glyph glyph-name="racute" unicode="&#x155;" horiz-adv-x="853" 
d="M811 849q-55 16 -131.5 16t-125.5 -15.5t-86 -37.5q-68 -40 -99 -90v-722h-200v1032h192l8 -143q75 94 219 141q52 18 119 18t104 -10v-189zM520 1621h234l-288 -367h-178z" />
    <glyph glyph-name="Rcommaaccent" unicode="&#x156;" 
d="M170 1392h395q395 0 509 -234q41 -86 41 -193.5t-28.5 -181.5t-79.5 -127q-98 -102 -270 -134q71 -219 241 -302q56 -28 94 -30q64 -2 90 4v-194h-45q-225 0 -383 160q-139 139 -187 350h-177v-510h-200v1392zM552 670q181 0 268 70t87 218q0 197 -183 254
q-64 20 -155 20h-199v-562h182zM677 -103v-114q0 -171 -66 -234q-61 -59 -223 -59v133q59 0 81 26q38 45 38 134v114h170z" />
    <glyph glyph-name="rcommaaccent" unicode="&#x157;" horiz-adv-x="853" 
d="M811 849q-55 16 -131.5 16t-125.5 -15.5t-86 -37.5q-68 -40 -99 -90v-722h-200v1032h192l8 -143q75 94 219 141q52 18 119 18t104 -10v-189zM362 -103v-114q0 -171 -66 -234q-61 -59 -223 -59v133q59 0 81 26q38 45 38 134v114h170z" />
    <glyph glyph-name="Rcaron" unicode="&#x158;" 
d="M170 1392h395q395 0 509 -234q41 -86 41 -193.5t-28.5 -181.5t-79.5 -127q-98 -102 -270 -134q71 -219 241 -302q56 -28 94 -30q64 -2 90 4v-194h-45q-225 0 -383 160q-139 139 -187 350h-177v-510h-200v1392zM552 670q181 0 268 70t87 218q0 197 -183 254
q-64 20 -155 20h-199v-562h182zM267 1783v192l324 -214l324 214v-192l-324 -230z" />
    <glyph glyph-name="rcaron" unicode="&#x159;" horiz-adv-x="853" 
d="M811 849q-55 16 -131.5 16t-125.5 -15.5t-86 -37.5q-68 -40 -99 -90v-722h-200v1032h192l8 -143q75 94 219 141q52 18 119 18t104 -10v-189zM52 1452v192l324 -214l324 214v-192l-324 -230z" />
    <glyph glyph-name="Sacute" unicode="&#x15a;" 
d="M765 18.5q-111 -28.5 -271.5 -28.5t-323.5 19v194q146 -33 294 -33t222 16.5t119 43.5q83 50 83 130q0 62 -32 96q-51 53 -147 97l-256 117q-132 62 -187 115q-118 114 -118 264q0 154 134 249q147 104 418 104q175 0 320 -14v-191q-123 28 -274.5 28t-220 -15.5
t-107.5 -39.5q-71 -44 -71 -116q0 -70 45 -116q40 -39 146 -90l263 -125q131 -62 183.5 -117t77.5 -110.5t25 -133t-34 -146t-105.5 -119t-182.5 -79zM745 1897h234l-288 -367h-178z" />
    <glyph glyph-name="sacute" unicode="&#x15b;" horiz-adv-x="1024" 
d="M408 -16q-125 0 -253 18v177q130 -31 264 -31q268 0 268 113q0 43 -21 64q-31 33 -98 66l-146 67q-142 71 -184 114q-79 80 -79 190q0 124 115 202q124 84 348 84q113 0 228 -16v-171q-126 23 -219.5 23t-145 -12t-77.5 -30q-41 -28 -41 -72.5t28.5 -72t89.5 -59.5
l147 -71q144 -75 185 -115q78 -76 78 -191q0 -123 -124 -198q-130 -79 -363 -79zM673 1621h234l-288 -367h-178z" />
    <glyph glyph-name="Scircumflex" unicode="&#x15c;" 
d="M765 18.5q-111 -28.5 -271.5 -28.5t-323.5 19v194q146 -33 294 -33t222 16.5t119 43.5q83 50 83 130q0 62 -32 96q-51 53 -147 97l-256 117q-132 62 -187 115q-118 114 -118 264q0 154 134 249q147 104 418 104q175 0 320 -14v-191q-123 28 -274.5 28t-220 -15.5
t-107.5 -39.5q-71 -44 -71 -116q0 -70 45 -116q40 -39 146 -90l263 -125q131 -62 183.5 -117t77.5 -110.5t25 -133t-34 -146t-105.5 -119t-182.5 -79zM322 1745l324 230l324 -230v-192l-324 214l-324 -214v192z" />
    <glyph glyph-name="scircumflex" unicode="&#x15d;" horiz-adv-x="1024" 
d="M408 -16q-125 0 -253 18v177q130 -31 264 -31q268 0 268 113q0 43 -21 64q-31 33 -98 66l-146 67q-142 71 -184 114q-79 80 -79 190q0 124 115 202q124 84 348 84q113 0 228 -16v-171q-126 23 -219.5 23t-145 -12t-77.5 -30q-41 -28 -41 -72.5t28.5 -72t89.5 -59.5
l147 -71q144 -75 185 -115q78 -76 78 -191q0 -123 -124 -198q-130 -79 -363 -79zM204 1414l324 230l324 -230v-192l-324 214l-324 -214v192z" />
    <glyph glyph-name="Scedilla" unicode="&#x15e;" 
d="M765 18.5q-111 -28.5 -271.5 -28.5t-323.5 19v194q146 -33 294 -33t222 16.5t119 43.5q83 50 83 130q0 62 -32 96q-51 53 -147 97l-256 117q-132 62 -187 115q-118 114 -118 264q0 154 134 249q147 104 418 104q175 0 320 -14v-191q-123 28 -274.5 28t-220 -15.5
t-107.5 -39.5q-71 -44 -71 -116q0 -70 45 -116q40 -39 146 -90l263 -125q131 -62 183.5 -117t77.5 -110.5t25 -133t-34 -146t-105.5 -119t-182.5 -79zM710 -275q0 56 -112 56h-120v303h144v-175h34q155 0 202 -99q16 -34 16 -84t-25 -94.5t-67 -75.5q-90 -65 -219 -65
q-67 0 -101 8v139q45 -9 87 -9q161 0 161 96z" />
    <glyph glyph-name="scedilla" unicode="&#x15f;" horiz-adv-x="1024" 
d="M363 -15q-98 2 -208 17v177q130 -31 264 -31q268 0 268 113q0 43 -21 64q-31 33 -98 66l-146 67q-142 71 -184 114q-79 80 -79 190q0 124 115 202q124 84 348 84q113 0 228 -16v-171q-126 23 -219.5 23t-145 -12t-77.5 -30q-41 -28 -41 -72.5t28.5 -72t89.5 -59.5
l147 -71q144 -75 185 -115q78 -76 78 -191q0 -109 -101 -182q-106 -77 -287 -91v-79h34q155 0 202 -99q16 -34 16 -84t-25 -94.5t-68 -75.5q-89 -65 -218 -65q-67 0 -101 8v139q45 -9 87 -9q161 0 161 96q0 56 -112 56h-120v204z" />
    <glyph glyph-name="Scaron" unicode="&#x160;" 
d="M765 18.5q-111 -28.5 -271.5 -28.5t-323.5 19v194q146 -33 294 -33t222 16.5t119 43.5q83 50 83 130q0 62 -32 96q-51 53 -147 97l-256 117q-132 62 -187 115q-118 114 -118 264q0 154 134 249q147 104 418 104q175 0 320 -14v-191q-123 28 -274.5 28t-220 -15.5
t-107.5 -39.5q-71 -44 -71 -116q0 -70 45 -116q40 -39 146 -90l263 -125q131 -62 183.5 -117t77.5 -110.5t25 -133t-34 -146t-105.5 -119t-182.5 -79zM322 1783v192l324 -214l324 214v-192l-324 -230z" />
    <glyph glyph-name="scaron" unicode="&#x161;" horiz-adv-x="1024" 
d="M408 -16q-125 0 -253 18v177q130 -31 264 -31q268 0 268 113q0 43 -21 64q-31 33 -98 66l-146 67q-142 71 -184 114q-79 80 -79 190q0 124 115 202q124 84 348 84q113 0 228 -16v-171q-126 23 -219.5 23t-145 -12t-77.5 -30q-41 -28 -41 -72.5t28.5 -72t89.5 -59.5
l147 -71q144 -75 185 -115q78 -76 78 -191q0 -123 -124 -198q-130 -79 -363 -79zM204 1452v192l324 -214l324 214v-192l-324 -230z" />
    <glyph glyph-name="Tcommaaccent" unicode="&#x162;" 
d="M495 1216h-419v176h1038v-176h-419v-1216h-200v1216zM680 -103v-114q0 -171 -66 -234q-61 -59 -223 -59v133q59 0 81 26q38 45 38 134v114h170z" />
    <glyph glyph-name="tcommaaccent" unicode="&#x163;" horiz-adv-x="853" 
d="M526 158q33 -12 100 -12t112 16v-160q-21 -5 -61 -6l-63 -2h-32q-193 0 -285 126q-74 102 -74 270v489h-148v94l148 59l48 256h152v-256h320v-153h-320v-488q0 -196 103 -233zM552 -103v-114q0 -171 -66 -234q-61 -59 -223 -59v133q59 0 81 26q38 45 38 134v114h170z" />
    <glyph glyph-name="Tcaron" unicode="&#x164;" 
d="M495 1216h-419v176h1038v-176h-419v-1216h-200v1216zM270 1783v192l324 -214l324 214v-192l-324 -230z" />
    <glyph glyph-name="tcaron" unicode="&#x165;" horiz-adv-x="853" 
d="M511 1308q94 0 107 125q5 42 5 98v169h172v-167q0 -200 -55 -283q-63 -99 -229 -99v157zM526 158q33 -12 100 -12t112 16v-160q-21 -5 -61 -6l-63 -2h-32q-193 0 -285 126q-74 102 -74 270v489h-148v94l148 59l48 256h152v-256h320v-153h-320v-488q0 -196 103 -233z" />
    <glyph glyph-name="Tbar" unicode="&#x166;" 
d="M495 680h-261v144h261v392h-419v176h1038v-176h-419v-392h259v-144h-259v-680h-200v680z" />
    <glyph glyph-name="tbar" unicode="&#x167;" horiz-adv-x="853" 
d="M526 158q33 -12 88 -12t84 16v-160q-16 -5 -46 -6l-46 -2h-24q-193 0 -285 126q-74 102 -74 270v141h-149v136h149v212h-148v94l148 59l48 256h152v-256h280v-153h-280v-212h281v-136h-281v-140q0 -196 103 -233z" />
    <glyph glyph-name="Utilde" unicode="&#x168;" horiz-adv-x="1365" 
d="M683 156q328 0 328 403v833h200v-833q0 -295 -149 -442q-135 -133 -379 -133q-377 0 -489 311q-40 109 -40 264v833h200v-833q0 -403 329 -403zM267 1602q0 113 69 188q68 73 167 73q80 0 168 -69l84 -64q61 -47 102 -47t65.5 27t24.5 80h152q0 -113 -69 -188
q-68 -73 -167 -73q-91 0 -210 96l-41 33q-61 51 -102.5 51t-66 -27t-24.5 -80h-152z" />
    <glyph glyph-name="utilde" unicode="&#x169;" 
d="M828 253v779h200v-1032h-180l-18 109q-148 -125 -327 -125q-190 0 -269 105q-82 107 -82 369v574h200v-564q0 -185 53 -252q47 -60 179.5 -60t243.5 97zM180 1263q0 113 69 187q68 74 167 74q80 0 168 -68l84 -64q61 -48 102 -48t65.5 27t24.5 80h152q0 -113 -69 -187
q-68 -74 -167 -74q-91 0 -210 96l-42 34q-60 50 -101.5 50t-66 -27t-24.5 -80h-152z" />
    <glyph glyph-name="Umacron" unicode="&#x16a;" horiz-adv-x="1365" 
d="M683 156q328 0 328 403v833h200v-833q0 -295 -149 -442q-135 -133 -379 -133q-377 0 -489 311q-40 109 -40 264v833h200v-833q0 -403 329 -403zM411 1682h542v-152h-542v152z" />
    <glyph glyph-name="umacron" unicode="&#x16b;" 
d="M828 253v779h200v-1032h-180l-18 109q-148 -125 -327 -125q-190 0 -269 105q-82 107 -82 369v574h200v-564q0 -185 53 -252q47 -60 179.5 -60t243.5 97zM325 1392h542v-152h-542v152z" />
    <glyph glyph-name="Ubreve" unicode="&#x16c;" horiz-adv-x="1365" 
d="M683 156q328 0 328 403v833h200v-833q0 -295 -149 -442q-135 -133 -379 -133q-377 0 -489 311q-40 109 -40 264v833h200v-833q0 -403 329 -403zM682 1530q-139 0 -236 96q-99 96 -99 231h160q0 -81 51 -132t124 -51t124 51t51 132h160q0 -135 -99 -231q-97 -96 -236 -96z
" />
    <glyph glyph-name="ubreve" unicode="&#x16d;" 
d="M828 253v779h200v-1032h-180l-18 109q-148 -125 -327 -125q-190 0 -269 105q-82 107 -82 369v574h200v-564q0 -185 53 -252q47 -60 179.5 -60t243.5 97zM596 1200q-139 0 -236 96q-99 96 -99 231h160q0 -81 51 -132t124 -51t124 51t51 132h160q0 -135 -99 -231
q-97 -96 -236 -96z" />
    <glyph glyph-name="Uring" unicode="&#x16e;" horiz-adv-x="1365" 
d="M683 156q328 0 328 403v833h200v-833q0 -295 -149 -442q-135 -133 -379 -133q-377 0 -489 311q-40 109 -40 264v833h200v-833q0 -403 329 -403zM681 1503q-57 0 -107 21t-87 57q-81 77 -81 190q0 112 80.5 190.5t195.5 78.5t195 -78q82 -80 82 -191q0 -112 -82 -190
q-81 -78 -196 -78zM682 1615q62 0 105 45q44 45 44 111q0 102 -91 145q-27 12 -58 12q-61 0 -105 -46q-43 -45 -43 -111t43 -111t105 -45z" />
    <glyph glyph-name="uring" unicode="&#x16f;" 
d="M828 253v779h200v-1032h-180l-18 109q-148 -125 -327 -125q-190 0 -269 105q-82 107 -82 369v574h200v-564q0 -185 53 -252q47 -60 179.5 -60t243.5 97zM594 1221q-58 0 -108 21t-88 57q-80 77 -80 190q0 112 80.5 190.5t195.5 78.5t196 -78q81 -80 81 -191
q0 -112 -81 -190q-82 -78 -196 -78zM594 1342q58 0 98.5 42.5t40.5 88t-11 72.5t-30 47q-39 43 -98 43q-57 0 -98 -43q-40 -42 -40 -88.5t10.5 -73t29.5 -46.5q41 -42 98 -42z" />
    <glyph glyph-name="Uhungarumlaut" unicode="&#x170;" horiz-adv-x="1365" 
d="M683 156q328 0 328 403v833h200v-833q0 -295 -149 -442q-135 -133 -379 -133q-377 0 -489 311q-40 109 -40 264v833h200v-833q0 -403 329 -403zM1024 1897h226l-288 -367h-170zM598 1897h226l-288 -367h-170z" />
    <glyph glyph-name="uhungarumlaut" unicode="&#x171;" 
d="M828 253v779h200v-1032h-180l-18 109q-148 -125 -327 -125q-190 0 -269 105q-82 107 -82 369v574h200v-564q0 -185 53 -252q47 -60 179.5 -60t243.5 97zM972 1621h226l-288 -367h-170zM546 1621h226l-288 -367h-170z" />
    <glyph glyph-name="Uogonek" unicode="&#x172;" horiz-adv-x="1365" 
d="M739 -14q-28 -2 -56 -2q-377 0 -489 311q-40 109 -40 264v833h200v-833q0 -403 329 -403q328 0 328 403v833h200v-833q0 -335 -191 -479q-118 -95 -160 -151q-77 -102 -77 -182q0 -71 71 -97q25 -9 73 -9t93 19v-148q-55 -22 -132 -22t-130 22t-85 56q-59 64 -59 170
t125 248z" />
    <glyph glyph-name="uogonek" unicode="&#x173;" 
d="M1015 -498q-55 -22 -132 -22t-130 22t-85 56q-59 64 -59 162q0 123 120 234q45 41 113 80l-12 75q-148 -125 -327 -125q-190 0 -269 105q-82 107 -82 369v574h200v-564q0 -185 53 -252q47 -60 179.5 -60t243.5 97v779h200v-1032h-2q-248 -120 -248 -252q0 -82 71 -108
q25 -9 73 -9t93 19v-148z" />
    <glyph glyph-name="Wcircumflex" unicode="&#x174;" horiz-adv-x="1877" 
d="M2 1392h208l269 -982l39 -173l44 173l282 982h192l279 -982l45 -180l43 180l271 982h200l-422 -1392h-192l-293 980l-33 125l-32 -125l-290 -980h-192zM613 1745l324 230l324 -230v-192l-324 214l-324 -214v192z" />
    <glyph glyph-name="wcircumflex" unicode="&#x175;" horiz-adv-x="1707" 
d="M16 1032h213l265 -820l268 820h208l271 -817l252 817h198l-347 -1032h-206l-278 782l-263 -782h-206zM540 1392l324 230l324 -230v-192l-324 214l-324 -214v192z" />
    <glyph glyph-name="Ycircumflex" unicode="&#x176;" horiz-adv-x="1200" 
d="M497 606l-497 786h216l388 -622l380 622h216l-495 -784v-608h-208v606zM275 1745l324 230l324 -230v-192l-324 214l-324 -214v192z" />
    <glyph glyph-name="ycircumflex" unicode="&#x177;" horiz-adv-x="1025" 
d="M112 -256q27 -8 73.5 -8t95.5 18.5t85 51.5q60 54 109 170l-424 1056h213l298 -822l267 822h211l-424 -1159q-48 -130 -133 -199q-112 -90 -299 -90q-17 0 -35 2l-37 4v154zM238 1414l324 230l324 -230v-192l-324 214l-324 -214v192z" />
    <glyph glyph-name="Ydieresis" unicode="&#x178;" horiz-adv-x="1200" 
d="M497 606l-497 786h216l388 -622l380 622h216l-495 -784v-608h-208v606zM912 1587q-36 -29 -89 -29t-87.5 29t-34.5 84t34.5 83t87.5 28t89 -28t36 -83t-36 -84zM447 1587q-36 -29 -89 -29t-87.5 29t-34.5 84t34.5 83t87.5 28t89 -28t36 -83t-36 -84z" />
    <glyph glyph-name="Zacute" unicode="&#x179;" horiz-adv-x="1365" 
d="M91 90l721 1133l-141 -5h-546v174h960v-90l-723 -1130l153 4h570v-176h-994v90zM796 1897h234l-288 -367h-178z" />
    <glyph glyph-name="zacute" unicode="&#x17a;" horiz-adv-x="1025" 
d="M89 116l600 756h-563v160h819v-116l-609 -756h631v-160h-878v116zM694 1621h234l-288 -367h-178z" />
    <glyph glyph-name="Zdotaccent" unicode="&#x17b;" horiz-adv-x="1365" 
d="M91 90l721 1133l-141 -5h-546v174h960v-90l-723 -1130l153 4h570v-176h-994v90zM786 1587q-36 -29 -89 -29t-87.5 29t-34.5 84t34.5 83t87.5 28t89 -28t36 -83t-36 -84z" />
    <glyph glyph-name="zdotaccent" unicode="&#x17c;" horiz-adv-x="1025" 
d="M89 116l600 756h-563v160h819v-116l-609 -756h631v-160h-878v116zM640 1243q-36 -29 -89 -29t-87.5 29t-34.5 84t34.5 83t87.5 28t89 -28t36 -83t-36 -84z" />
    <glyph glyph-name="Zcaron" unicode="&#x17d;" horiz-adv-x="1365" 
d="M91 90l721 1133l-141 -5h-546v174h960v-90l-723 -1130l153 4h570v-176h-994v90zM373 1783v192l324 -214l324 214v-192l-324 -230z" />
    <glyph glyph-name="zcaron" unicode="&#x17e;" horiz-adv-x="1025" 
d="M89 116l600 756h-563v160h819v-116l-609 -756h631v-160h-878v116zM225 1452v192l324 -214l324 214v-192l-324 -230z" />
    <glyph glyph-name="florin" unicode="&#x192;" horiz-adv-x="1022" 
d="M34 -157q36 -12 98.5 -12t99 12t58.5 35q37 40 52 134l130 839h-173v154h197q7 42 13.5 85t20.5 82.5t38 73.5t65 59q89 54 252 54q67 0 102 -8v-158q-36 12 -98.5 12t-99 -12.5t-59.5 -35.5q-36 -37 -54 -152h191v-154h-215l-140 -899q-14 -97 -47.5 -145t-74.5 -74
q-88 -56 -254 -56q-67 0 -102 8v158z" />
    <glyph glyph-name="AEacute" unicode="&#x1fc;" horiz-adv-x="1869" 
d="M923 1392h832v-174h-566v-410h396v-168h-396v-464h566v-176h-766v350h-521l-224 -350h-224zM989 510v655l-419 -655h419zM1288 1897h234l-288 -367h-178z" />
    <glyph glyph-name="aeacute" unicode="&#x1fd;" horiz-adv-x="1703" 
d="M1269 -15q-293 0 -417 200q-65 -100 -162 -150t-244 -50q-125 0 -228 73q-126 90 -126 265t175 261q148 73 385 73h116v44q0 85 -62.5 136.5t-196.5 51.5q-166 0 -269 -25q-27 -7 -52 -12v159q148 37 344 37q272 0 360 -140q98 101 244 131q43 9 112 9t142 -32t122 -92
q99 -120 99 -336v-78h-655q0 -255 159 -332q61 -29 196 -29t245 31v-169q-110 -26 -287 -26zM1411 657q0 167 -113 220q-38 18 -91 18q-104 0 -179 -73q-72 -70 -72 -165h455zM861 871l1 2q-1 0 -1 -2zM318.5 414q-26.5 -36 -26.5 -89.5t17.5 -88.5t45.5 -56q53 -41 115 -41
t115.5 15.5t98.5 49.5q101 78 101 222v83h-133q-172 0 -239.5 -29.5t-94 -65.5zM1013 1621h234l-288 -367h-178z" />
    <glyph glyph-name="Scommaaccent" unicode="&#x218;" 
d="M765 18.5q-111 -28.5 -271.5 -28.5t-323.5 19v194q146 -33 294 -33t222 16.5t119 43.5q83 50 83 130q0 62 -32 96q-51 53 -147 97l-256 117q-132 62 -187 115q-118 114 -118 264q0 154 134 249q147 104 418 104q175 0 320 -14v-191q-123 28 -274.5 28t-220 -15.5
t-107.5 -39.5q-71 -44 -71 -116q0 -70 45 -116q40 -39 146 -90l263 -125q131 -62 183.5 -117t77.5 -110.5t25 -133t-34 -146t-105.5 -119t-182.5 -79zM680 -103v-114q0 -171 -66 -234q-61 -59 -223 -59v133q59 0 81 26q38 45 38 134v114h170z" />
    <glyph glyph-name="scommaaccent" unicode="&#x219;" horiz-adv-x="1024" 
d="M408 -16q-125 0 -253 18v177q130 -31 264 -31q268 0 268 113q0 43 -21 64q-31 33 -98 66l-146 67q-142 71 -184 114q-79 80 -79 190q0 124 115 202q124 84 348 84q113 0 228 -16v-171q-126 23 -219.5 23t-145 -12t-77.5 -30q-41 -28 -41 -72.5t28.5 -72t89.5 -59.5
l147 -71q144 -75 185 -115q78 -76 78 -191q0 -123 -124 -198q-130 -79 -363 -79zM595 -103v-114q0 -171 -66 -234q-61 -59 -223 -59v133q59 0 81 26q38 45 38 134v114h170z" />
    <glyph glyph-name="dotlessj" unicode="&#x237;" horiz-adv-x="512" 
d="M156 1032h200v-1054q0 -271 -170 -361q-67 -35 -173 -35q-17 0 -35 2l-37 4v154q27 -8 61 -8t64.5 12t50.5 40q39 56 39 193v1053z" />
    <glyph glyph-name="circumflex" unicode="&#x2c6;" horiz-adv-x="1021" 
d="M186 1414l324 230l324 -230v-192l-324 214l-324 -214v192z" />
    <glyph glyph-name="caron" unicode="&#x2c7;" horiz-adv-x="1021" 
d="M186 1452v192l324 -214l324 214v-192l-324 -230z" />
    <glyph glyph-name="breve" unicode="&#x2d8;" horiz-adv-x="1191" 
d="M510 1200q-139 0 -236 96q-99 96 -99 231h160q0 -81 51 -132t124 -51t124 51t51 132h160q0 -135 -99 -231q-97 -96 -236 -96z" />
    <glyph glyph-name="dotaccent" unicode="&#x2d9;" horiz-adv-x="511" 
d="M346 1243q-36 -29 -89 -29t-87.5 29t-34.5 84t34.5 83t87.5 28t89 -28t36 -83t-36 -84z" />
    <glyph glyph-name="ring" unicode="&#x2da;" horiz-adv-x="851" 
d="M424 1221q-58 0 -108 21t-88 57q-80 77 -80 190q0 112 80.5 190.5t195.5 78.5t196 -78q81 -80 81 -191q0 -112 -81 -190q-82 -78 -196 -78zM424 1342q58 0 98.5 42.5t40.5 88t-11 72.5t-30 47q-39 43 -98 43q-57 0 -98 -43q-40 -42 -40 -88.5t10.5 -73t29.5 -46.5
q41 -42 98 -42z" />
    <glyph glyph-name="ogonek" unicode="&#x2db;" horiz-adv-x="680" 
d="M548 -488q-55 -22 -132 -22t-130 22t-85 56q-59 64 -59 162q0 128 130 242q49 43 124 84l125 -22l38 -24q-248 -120 -248 -252q0 -82 71 -108q25 -9 73 -9t93 19v-148z" />
    <glyph glyph-name="tilde" unicode="&#x2dc;" horiz-adv-x="1021" 
d="M94 1263q0 113 69 187q68 74 167 74q80 0 168 -68l84 -64q61 -48 102 -48t65.5 27t24.5 80h152q0 -113 -69 -187q-68 -74 -167 -74q-91 0 -210 96l-42 34q-60 50 -101.5 50t-66 -27t-24.5 -80h-152z" />
    <glyph glyph-name="hungarumlaut" unicode="&#x2dd;" horiz-adv-x="1192" 
d="M886 1621h226l-288 -367h-170zM460 1621h226l-288 -367h-170z" />
    <glyph glyph-name="Delta" unicode="&#x394;" horiz-adv-x="1537" 
d="M196 100l512 1292h120l512 -1292v-100h-1144v100zM1131 162l-335 857l-28 89l-28 -89l-336 -857h727z" />
    <glyph glyph-name="Delta" unicode="&#x2206;" horiz-adv-x="1537" 
d="M196 100l512 1292h120l512 -1292v-100h-1144v100zM1131 162l-335 857l-28 89l-28 -89l-336 -857h727z" />
    <glyph glyph-name="Omega" unicode="&#x3a9;" horiz-adv-x="1706" 
d="M173 170h286q-177 163 -233 390q-19 79 -19 166q0 310 197 494q184 173 449 173t449 -173q197 -184 197 -494q0 -322 -253 -556h287v-170h-565v92q266 223 322 470q19 81 19 174.5t-30.5 184t-88.5 157.5q-127 147 -337 147t-337 -147q-119 -137 -119 -351
q0 -263 183 -480q65 -77 158 -155v-92h-565v170z" />
    <glyph glyph-name="Omega" unicode="&#x2126;" horiz-adv-x="1706" 
d="M173 170h286q-177 163 -233 390q-19 79 -19 166q0 310 197 494q184 173 449 173t449 -173q197 -184 197 -494q0 -322 -253 -556h287v-170h-565v92q266 223 322 470q19 81 19 174.5t-30.5 184t-88.5 157.5q-127 147 -337 147t-337 -147q-119 -137 -119 -351
q0 -263 183 -480q65 -77 158 -155v-92h-565v170z" />
    <glyph glyph-name="pi" unicode="&#x3c0;" horiz-adv-x="1365" 
d="M1225 0q-60 -6 -72 -6q-185 0 -257 126q-52 92 -52 270v474h-482v-863h-176v863h-140v168h1179v-168h-205v-473q0 -198 84 -233q29 -12 61.5 -12t59.5 8v-154z" />
    <glyph glyph-name="uni1E02" unicode="&#x1e02;" 
d="M170 1392h351q345 0 445 -199q37 -75 37 -149t-15.5 -117.5t-41.5 -79.5q-49 -68 -130 -116v-4q150 -43 221 -151q54 -82 54 -182t-39.5 -173t-109.5 -122q-143 -99 -382 -99h-390v1392zM559 785q161 0 217 127q19 45 19 100.5t-14 96t-45 69.5q-66 62 -199 62h-167v-455
h189zM883 390q0 243 -292 243h-221v-481h190q220 0 297 133q26 45 26 105zM598 1587q-36 -29 -89 -29t-87.5 29t-34.5 84t34.5 83t87.5 28t89 -28t36 -83t-36 -84z" />
    <glyph glyph-name="uni1E03" unicode="&#x1e03;" horiz-adv-x="1192" 
d="M682.5 16.5q-108.5 -31.5 -234 -31.5t-280.5 15v1488h200v-559q66 75 183 107q44 12 90.5 12t94.5 -9.5t95.5 -32.5t90.5 -61t76 -95q73 -122 73 -289.5t-53.5 -272.5t-140 -172.5t-195 -99zM369 147q28 -8 110 -8t154 23t123 72q107 103 107 307q0 249 -145 326
q-52 27 -106 27t-94 -14t-70 -34q-57 -39 -79 -84v-615zM792 1243q-36 -29 -89 -29t-87.5 29t-34.5 84t34.5 83t87.5 28t89 -28t36 -83t-36 -84z" />
    <glyph glyph-name="uni1E0A" unicode="&#x1e0a;" horiz-adv-x="1366" 
d="M154 1391h338q342 0 542 -169q216 -181 216 -528t-210 -527q-196 -167 -538 -167h-348v1391zM1045 693q0 537 -566 537h-125v-1070h136q432 0 526 312q29 99 29 221zM727 1587q-36 -29 -89 -29t-87.5 29t-34.5 84t34.5 83t87.5 28t89 -28t36 -83t-36 -84z" />
    <glyph glyph-name="uni1E0B" unicode="&#x1e0b;" horiz-adv-x="1194" 
d="M506.5 1017q108.5 31 189.5 31t125 -4v444h199v-1488h-179l-8 119q-61 -81 -185 -120q-48 -15 -97.5 -15t-97.5 10t-95.5 33.5t-90.5 62t-77 94.5q-72 123 -72 291t53.5 272.5t140 171.5t195 98zM353.5 676.5q-27.5 -75.5 -27.5 -183t26 -177t65 -108.5q69 -70 166 -70
q125 0 207 92q21 23 30 41v615l-20 2q-46 6 -109.5 6t-135.5 -22.5t-123 -71t-78.5 -124zM568 1243q-36 -29 -89 -29t-87.5 29t-34.5 84t34.5 83t87.5 28t89 -28t36 -83t-36 -84z" />
    <glyph glyph-name="uni1E1E" unicode="&#x1e1e;" 
d="M154 1392h947v-174h-747v-410h577v-168h-577v-640h-200v1392zM715 1587q-36 -29 -89 -29t-87.5 29t-34.5 84t34.5 83t87.5 28t89 -28t36 -83t-36 -84z" />
    <glyph glyph-name="uni1E1F" unicode="&#x1e1f;" horiz-adv-x="684" 
d="M679 1338q-36 12 -100 12t-101.5 -12t-59.5 -35q-38 -41 -38 -134v-137h258v-153h-258v-879h-200v879h-124v94l124 59v110q0 105 18.5 158t44.5 88t70 61q93 55 261 55q70 0 105 -8v-158zM404 1634q-36 -29 -89 -29t-87.5 29t-34.5 84t34.5 83t87.5 28t89 -28t36 -83
t-36 -84z" />
    <glyph glyph-name="uni1E40" unicode="&#x1e40;" horiz-adv-x="1536" 
d="M145 1392h128l496 -570l494 570h128v-1392h-200v1060l-59 -80l-363 -423l-363 422l-61 80v-1059h-200v1392zM856 1587q-36 -29 -89 -29t-87.5 29t-34.5 84t34.5 83t87.5 28t89 -28t36 -83t-36 -84z" />
    <glyph glyph-name="uni1E41" unicode="&#x1e41;" horiz-adv-x="1878" 
d="M359 775l1 -775h-200v1032h184l14 -113q110 92 256 120q47 9 92 9q187 0 282 -158q174 158 364 158q188 0 274 -113q86 -115 86 -380v-555h-200v548q0 260 -125 311q-42 17 -98 17q-134 0 -246 -96v-780h-200v556q0 178 -53 250q-51 70 -182.5 70t-248.5 -101zM1111 1243
q-36 -29 -89 -29t-87.5 29t-34.5 84t34.5 83t87.5 28t89 -28t36 -83t-36 -84z" />
    <glyph glyph-name="uni1E56" unicode="&#x1e56;" 
d="M170 1392h395q395 0 509 -234q41 -86 41 -204t-42 -202t-113 -138q-138 -104 -369 -104h-221v-510h-200v1392zM552 670q181 0 268 70t87 218q0 197 -183 254q-64 20 -155 20h-199v-562h182zM650 1587q-36 -29 -89 -29t-87.5 29t-34.5 84t34.5 83t87.5 28t89 -28t36 -83
t-36 -84z" />
    <glyph glyph-name="uni1E57" unicode="&#x1e57;" horiz-adv-x="1196" 
d="M370 -400h-200v1432h180l8 -118q60 80 184 119q48 15 97.5 15t97.5 -10.5t95 -34t90 -62t76 -95.5q72 -123 72 -305q0 -278 -192 -425q-170 -131 -414 -131h-50q-24 0 -44 1v-386zM370 148q28 -8 110 -8t154 23t122 71q106 102 106 307q0 193 -92 285q-68 68 -166 68
q-123 0 -204 -91q-21 -23 -30 -41v-614zM771 1243q-36 -29 -89 -29t-87.5 29t-34.5 84t34.5 83t87.5 28t89 -28t36 -83t-36 -84z" />
    <glyph glyph-name="uni1E60" unicode="&#x1e60;" 
d="M765 18.5q-111 -28.5 -271.5 -28.5t-323.5 19v194q146 -33 294 -33t222 16.5t119 43.5q83 50 83 130q0 62 -32 96q-51 53 -147 97l-256 117q-132 62 -187 115q-118 114 -118 264q0 154 134 249q147 104 418 104q175 0 320 -14v-191q-123 28 -274.5 28t-220 -15.5
t-107.5 -39.5q-71 -44 -71 -116q0 -70 45 -116q40 -39 146 -90l263 -125q131 -62 183.5 -117t77.5 -110.5t25 -133t-34 -146t-105.5 -119t-182.5 -79zM735 1587q-36 -29 -89 -29t-87.5 29t-34.5 84t34.5 83t87.5 28t89 -28t36 -83t-36 -84z" />
    <glyph glyph-name="uni1E61" unicode="&#x1e61;" horiz-adv-x="1024" 
d="M408 -16q-125 0 -253 18v177q130 -31 264 -31q268 0 268 113q0 43 -21 64q-31 33 -98 66l-146 67q-142 71 -184 114q-79 80 -79 190q0 124 115 202q124 84 348 84q113 0 228 -16v-171q-126 23 -219.5 23t-145 -12t-77.5 -30q-41 -28 -41 -72.5t28.5 -72t89.5 -59.5
l147 -71q144 -75 185 -115q78 -76 78 -191q0 -123 -124 -198q-130 -79 -363 -79zM619 1243q-36 -29 -89 -29t-87.5 29t-34.5 84t34.5 83t87.5 28t89 -28t36 -83t-36 -84z" />
    <glyph glyph-name="uni1E6A" unicode="&#x1e6a;" 
d="M495 1216h-419v176h1038v-176h-419v-1216h-200v1216zM683 1587q-36 -29 -89 -29t-87.5 29t-34.5 84t34.5 83t87.5 28t89 -28t36 -83t-36 -84z" />
    <glyph glyph-name="uni1E6B" unicode="&#x1e6b;" horiz-adv-x="853" 
d="M526 158q33 -12 100 -12t112 16v-160q-21 -5 -61 -6l-63 -2h-32q-193 0 -285 126q-74 102 -74 270v489h-148v94l148 59l48 256h152v-256h320v-153h-320v-488q0 -196 103 -233zM445 1462q-36 -29 -89 -29t-87.5 29t-34.5 84t34.5 83t87.5 28t89 -28t36 -83t-36 -84z" />
    <glyph glyph-name="Wgrave" unicode="&#x1e80;" horiz-adv-x="1877" 
d="M2 1392h208l269 -982l39 -173l44 173l282 982h192l279 -982l45 -180l43 180l271 982h200l-422 -1392h-192l-293 980l-33 125l-32 -125l-290 -980h-192zM608 1897h234l232 -367h-178z" />
    <glyph glyph-name="wgrave" unicode="&#x1e81;" horiz-adv-x="1707" 
d="M16 1032h213l265 -820l268 820h208l271 -817l252 817h198l-347 -1032h-206l-278 782l-263 -782h-206zM537 1599h234l232 -367h-178z" />
    <glyph glyph-name="Wacute" unicode="&#x1e82;" horiz-adv-x="1877" 
d="M2 1392h208l269 -982l39 -173l44 173l282 982h192l279 -982l45 -180l43 180l271 982h200l-422 -1392h-192l-293 980l-33 125l-32 -125l-290 -980h-192zM1036 1897h234l-288 -367h-178z" />
    <glyph glyph-name="wacute" unicode="&#x1e83;" horiz-adv-x="1707" 
d="M16 1032h213l265 -820l268 820h208l271 -817l252 817h198l-347 -1032h-206l-278 782l-263 -782h-206zM1008 1599h234l-288 -367h-178z" />
    <glyph glyph-name="Wdieresis" unicode="&#x1e84;" horiz-adv-x="1877" 
d="M2 1392h208l269 -982l39 -173l44 173l282 982h192l279 -982l45 -180l43 180l271 982h200l-422 -1392h-192l-293 980l-33 125l-32 -125l-290 -980h-192zM1250 1587q-36 -29 -89 -29t-87.5 29t-34.5 84t34.5 83t87.5 28t89 -28t36 -83t-36 -84zM785 1587q-36 -29 -89 -29
t-87.5 29t-34.5 84t34.5 83t87.5 28t89 -28t36 -83t-36 -84z" />
    <glyph glyph-name="wdieresis" unicode="&#x1e85;" horiz-adv-x="1707" 
d="M16 1032h213l265 -820l268 820h208l271 -817l252 817h198l-347 -1032h-206l-278 782l-263 -782h-206zM1189 1221q-36 -29 -89 -29t-87.5 29t-34.5 84t34.5 83t87.5 28t89 -28t36 -83t-36 -84zM724 1221q-36 -29 -89 -29t-87.5 29t-34.5 84t34.5 83t87.5 28t89 -28t36 -83
t-36 -84z" />
    <glyph glyph-name="Ygrave" unicode="&#x1ef2;" horiz-adv-x="1200" 
d="M497 606l-497 786h216l388 -622l380 622h216l-495 -784v-608h-208v606zM270 1897h234l232 -367h-178z" />
    <glyph glyph-name="ygrave" unicode="&#x1ef3;" horiz-adv-x="1025" 
d="M112 -256q27 -8 73.5 -8t95.5 18.5t85 51.5q60 54 109 170l-424 1056h213l298 -822l267 822h211l-424 -1159q-48 -130 -133 -199q-112 -90 -299 -90q-17 0 -35 2l-37 4v154zM235 1621h234l232 -367h-178z" />
    <glyph glyph-name="endash" unicode="&#x2013;" 
d="M170 671h850v-152h-850v152z" />
    <glyph glyph-name="emdash" unicode="&#x2014;" horiz-adv-x="1880" 
d="M170 671h1530v-152h-1530v152z" />
    <glyph glyph-name="quoteleft" unicode="&#x2018;" horiz-adv-x="512" 
d="M109 1142q0 194 75 286q84 102 274 102v-160q-126 0 -148 -130q-8 -42 -8 -98v-122h-193v122z" />
    <glyph glyph-name="quoteright" unicode="&#x2019;" horiz-adv-x="512" 
d="M458.007 1408.07q0 -193.987 -74.9951 -285.982q-83.9951 -101.993 -273.983 -101.993v159.99q125.992 0 147.99 129.992q8 41.9971 8 97.9932v121.993h192.988v-121.993z" />
    <glyph glyph-name="quotesinglbase" unicode="&#x201a;" horiz-adv-x="512" 
d="M364.007 47.0693q0 -193.987 -74.9951 -285.982q-83.9951 -101.993 -273.983 -101.993v159.99q125.992 0 147.99 129.992q8 41.9971 8 97.9932v121.993h192.988v-121.993z" />
    <glyph glyph-name="quotedblleft" unicode="&#x201c;" horiz-adv-x="1023" 
d="M170 1142q0 194 75 286q84 102 274 102v-160q-126 0 -148 -130q-8 -42 -8 -98v-122h-193v122zM585 1142q0 194 75 286q84 102 274 102v-160q-126 0 -148 -130q-8 -42 -8 -98v-122h-193v122z" />
    <glyph glyph-name="quotedblright" unicode="&#x201d;" horiz-adv-x="1024" 
d="M850.007 1408.07q0 -193.987 -74.9951 -285.982q-83.9951 -101.993 -273.983 -101.993v159.99q125.992 0 147.99 129.992q8 41.9971 8 97.9932v121.993h192.988v-121.993zM435.007 1408.07q0 -193.987 -74.9951 -285.982q-83.9951 -101.993 -273.983 -101.993v159.99
q125.992 0 147.99 129.992q8 41.9971 8 97.9932v121.993h192.988v-121.993z" />
    <glyph glyph-name="quotedblbase" unicode="&#x201e;" horiz-adv-x="1024" 
d="M435.007 48.0693q0 -193.987 -74.9951 -285.982q-83.9951 -101.993 -273.983 -101.993v159.99q125.992 0 147.99 129.992q8 41.9971 8 97.9932v121.993h192.988v-121.993zM850.007 48.0693q0 -193.987 -74.9951 -285.982q-83.9951 -101.993 -273.983 -101.993v159.99
q125.992 0 147.99 129.992q8 41.9971 8 97.9932v121.993h192.988v-121.993z" />
    <glyph glyph-name="dagger" unicode="&#x2020;" horiz-adv-x="854" 
d="M351 874l-300 -24v168l300 -24v366h152v-366l300 24v-168l-300 24v-874h-152v874z" />
    <glyph glyph-name="daggerdbl" unicode="&#x2021;" horiz-adv-x="854" 
d="M51 508l300 -24v390l-300 -24v168l300 -24v366h152v-366l300 24v-168l-300 24v-390l300 24v-168l-300 24v-364h-152v364l-300 -24v168z" />
    <glyph glyph-name="bullet" unicode="&#x2022;" horiz-adv-x="853" 
d="M425 342q-125 0 -215 90t-90 215q0 126 90 217q88 90 215 90q128 0 217 -90q90 -92 90 -217q0 -124 -90.5 -214.5t-216.5 -90.5z" />
    <glyph glyph-name="ellipsis" unicode="&#x2026;" horiz-adv-x="1533" 
d="M1178.5 7.5q-39.5 32.5 -39.5 94t39.5 94.5t100 33t100.5 -33t40 -94.5t-40 -94t-100.5 -32.5t-100 32.5zM667.5 7.5q-39.5 32.5 -39.5 94t39.5 94.5t100 33t100.5 -33t40 -94.5t-40 -94t-100.5 -32.5t-100 32.5zM156.5 7.5q-39.5 32.5 -39.5 94t39.5 94.5t100 33
t100.5 -33t40 -94.5t-40 -94t-100.5 -32.5t-100 32.5z" />
    <glyph glyph-name="perthousand" unicode="&#x2030;" horiz-adv-x="2391" 
d="M430 680q-69 0 -127 22.5t-99 65.5q-88 92 -88 251q0 156 88 249q85 91 227 91q139 0 224 -91q86 -92 86 -249q0 -159 -86 -251q-83 -88 -225 -88zM317 863q41 -55 113 -55t111.5 55t39.5 154.5t-39.5 156.5t-111.5 57t-113 -57t-41 -156.5t41 -154.5zM1663 339
q0 80 23 143t64 107q86 91 228 91q139 0 224 -91q86 -92 86 -249q0 -159 -86 -250q-83 -89 -224 -89q-143 0 -228 89q-87 91 -87 249zM939 339q0 80 23 143t64 107q86 91 228 91q139 0 224 -91q86 -92 86 -249q0 -159 -86 -250q-83 -89 -224 -89q-143 0 -228 89
q-87 91 -87 249zM1864 495q-41 -57 -41 -156.5t41 -154.5t113 -55t111.5 55t39.5 154.5t-39.5 156.5t-111.5 57t-113 -57zM1140 495q-41 -57 -41 -156.5t41 -154.5t113 -55t111.5 55t39.5 154.5t-39.5 156.5t-111.5 57t-113 -57zM1155 1360h167l-787 -1360h-167z" />
    <glyph glyph-name="guilsinglleft" unicode="&#x2039;" horiz-adv-x="1024" 
d="M170 593l611 402v-196l-429 -266l429 -273v-196l-611 411v118z" />
    <glyph glyph-name="guilsinglright" unicode="&#x203a;" horiz-adv-x="1024" 
d="M850.011 593l-610.963 402v-196l428.974 -266l-428.974 -273v-196l610.963 411v118z" />
    <glyph glyph-name="fraction" unicode="&#x2044;" horiz-adv-x="1024" 
d="M822 1360h167l-787 -1360h-167z" />
    <glyph glyph-name="Euro" unicode="&#x20ac;" 
d="M1142 14q-92 -22 -240.5 -22t-251 22t-187.5 67q-177 94 -249 275h-214l65 154h111q-6 48 -6 91.5t3 78.5h-173l65 153h139q66 194 245 299q169 100 393 100q166 0 260 -15v-190q-96 30 -260 30q-327 0 -437 -224h589l-66 -153h-566q-4 -34 -4 -83t8 -87h484l-66 -154
h-357q124 -186 441 -186q121 0 189.5 16t84.5 23v-195z" />
    <glyph glyph-name="trademark" unicode="&#x2122;" horiz-adv-x="1877" 
d="M932 1361h104l295 -370l296 370h104v-851h-172v534l-61 -80l-167 -190l-166 190l-61 80v-534h-172v851zM393 1208h-248v152h668v-152h-249v-698h-171v698z" />
    <glyph glyph-name="partialdiff" unicode="&#x2202;" horiz-adv-x="1194" 
d="M247 1341q119 19 241.5 19t223.5 -34.5t170 -91t111 -129t65 -147.5q36 -123 36 -266q0 -293 -84 -457q-61 -118 -168.5 -184.5t-227 -66.5t-208 31.5t-154.5 92.5q-143 131 -143 350q0 217 141 346q130 121 326 121q245 0 346 -178h4q0 177 -102 299q-121 144 -354 144
q-59 0 -133 -14t-90 -19v184zM309 458q0 -60 18 -117.5t54 -102.5q80 -100 221 -100q151 0 229 110q63 88 63 210q0 138 -79 220q-81 85 -223 85q-137 0 -214 -91q-69 -82 -69 -214z" />
    <glyph glyph-name="product" unicode="&#x220f;" horiz-adv-x="1706" 
d="M343 1224h-140v168h1299v-168h-140v-1564h-176v1564h-667v-1564h-176v1564z" />
    <glyph glyph-name="summation" unicode="&#x2211;" horiz-adv-x="1196" 
d="M604 510l-519 736v114h1019v-155h-788l494 -695l-494 -695h788v-155h-1019v114z" />
    <glyph glyph-name="minus" unicode="&#x2212;" 
d="M127 673h943v-154h-943v154z" />
    <glyph glyph-name="radical" unicode="&#x221a;" horiz-adv-x="1361" 
d="M100 850h344l301 -824l453 1472h183l-550 -1701h-169l-337 885h-225v168z" />
    <glyph glyph-name="infinity" unicode="&#x221e;" horiz-adv-x="2054" 
d="M705.5 289q-61.5 -27 -138.5 -27t-138.5 23t-106 60t-72.5 84t-44 94q-30 84 -30 142.5t6.5 104t23 92.5t44.5 92t72 80q98 77 251 77q171 0 347 -182q47 -48 85 -91v1l28 -31l108 120q169 183 340 183q282 0 367 -249q29 -85 29 -145.5t-6.5 -104t-22.5 -91t-44.5 -93.5
t-72.5 -83q-99 -83 -250 -83q-178 0 -357 188l-83 92l-19 21q-5 -6 -10.5 -11.5t-26.5 -30.5t-66 -73.5t-98.5 -90t-115 -68.5zM1176 649q186 -212 305 -212q147 0 192 159q14 49 14 78t-3 54t-11 53t-22 55.5t-37 49.5q-52 50 -133 50q-98 0 -244 -138q-38 -36 -66 -69
l-32 -37zM495.5 451.5q32.5 -14.5 74.5 -14.5t85 20.5t85 52.5q67 50 146 137q8 8 14.5 16.5t13.5 16.5l-42 49q-182 207 -299 207q-149 0 -193 -152q-14 -49 -14 -80.5t3 -55.5t11 -52t22.5 -56t37.5 -51t55.5 -37.5z" />
    <glyph glyph-name="integral" unicode="&#x222b;" horiz-adv-x="852" 
d="M79 -354q41 -12 91.5 -12t82 12t49.5 35q33 40 33 134v1322q0 113 13.5 162t35 84t58.5 61q80 55 231 55q59 0 94 -8v-158q-43 12 -93.5 12t-82 -12t-49.5 -35q-33 -40 -33 -134v-1322q0 -113 -13.5 -162t-35 -84t-58.5 -61q-80 -55 -231 -55q-60 0 -92 8v158z" />
    <glyph glyph-name="approxequal" unicode="&#x2248;" horiz-adv-x="1194" 
d="M116 729q0 130 66 209q68 82 180 82q67 0 119.5 -22t87.5 -40l132 -70q78 -42 124.5 -42t74 29.5t27.5 87.5h152q0 -174 -143 -255q-46 -25 -103 -36q-68 0 -119.5 21t-85.5 39l-130 71q-76 43 -125 43q-105 0 -105 -117h-152zM116 339q0 130 66 209q68 82 180 82
q67 0 119.5 -22t87.5 -40l132 -70q78 -42 124.5 -42t74 29.5t27.5 87.5h152q0 -174 -143 -255q-46 -25 -103 -36q-68 0 -119.5 21t-85.5 39l-130 71q-76 43 -125 43q-105 0 -105 -117h-152z" />
    <glyph glyph-name="notequal" unicode="&#x2260;" horiz-adv-x="1194" 
d="M360 346h-235v154h324l111 192h-435v154h524l200 344h162l-200 -344h257v-154h-346l-111 -192h457v-154h-546l-200 -346h-162z" />
    <glyph glyph-name="lessequal" unicode="&#x2264;" horiz-adv-x="1190" 
d="M71 817l1003 432v-183l-744 -301l744 -300v-183l-1003 432v103zM70 155h1003v-154h-1003v154z" />
    <glyph glyph-name="greaterequal" unicode="&#x2265;" horiz-adv-x="1190" 
d="M1119 817l-1002.94 432v-183l743.955 -301l-743.955 -300v-183l1002.94 432v103zM1120 155h-1002.94v-154h1002.94v154z" />
    <glyph glyph-name="lozenge" unicode="&#x25ca;" horiz-adv-x="1196" 
d="M88 680l450 680h120l450 -679l-450 -681h-120zM898 681l-300 464l-300 -465l300 -465z" />
    <glyph glyph-name="ff" unicode="&#xfb00;" horiz-adv-x="1366" 
d="M1316 1334q-36 12 -98.5 12t-100 -12t-59.5 -35q-38 -41 -38 -134v-133h250v-153h-250v-879h-200v879h-440v-879h-200v879h-124v94l123 60l1 105q0 227 134 307q92 55 260 55q67 0 102 -8v-158q-36 12 -98.5 12t-100 -12t-59.5 -35q-38 -41 -38 -134v-133l440 1v105
q0 105 18.5 158t44.5 88t70 61q93 55 261 55q67 0 102 -8v-158z" />
    <glyph glyph-name="fi" unicode="&#xfb01;" 
d="M666 1334q-36 12 -98.5 12t-100 -12t-59.5 -35q-38 -41 -38 -134v-133h650v-1032h-200v879h-450v-879h-200v879h-124v94l123 60l1 105q0 227 134 307q92 55 260 55q67 0 102 -8v-158zM1014.5 1244.5q-37.5 -30.5 -93.5 -30.5t-92.5 30.5t-36.5 88t36.5 87.5t92.5 30
t93.5 -30t37.5 -87.5t-37.5 -88z" />
    <glyph glyph-name="fl" unicode="&#xfb02;" horiz-adv-x="1363" 
d="M850 1325q-114 21 -194 21t-132 -11.5t-86 -38.5q-68 -54 -68 -187v-77h250v-153h-250v-879h-200v879h-124v94l124 60v73q0 179 85 272q113 122 392 122q178 0 355 -32l47 -8v-2h1v-1067q0 -198 90 -233q30 -12 64 -12t61 8v-154l-37 -4q-18 -2 -35 -2q-192 0 -277 126
q-66 99 -66 270v935z" />
    <glyph glyph-name="commaaccent" horiz-adv-x="510" 
d="M340 -103v-114q0 -171 -66 -234q-61 -59 -223 -59v133q59 0 81 26q38 45 38 134v114h170z" />
    <glyph glyph-name="acute.cap" horiz-adv-x="682" 
d="M353 1897h234l-288 -367h-178z" />
    <glyph glyph-name="circumflex.cap" horiz-adv-x="682" 
d="M16 1745l324 230l324 -230v-192l-324 214l-324 -214v192z" />
    <glyph glyph-name="dieresis.cap" horiz-adv-x="853" 
d="M746 1587q-36 -29 -89 -29t-87.5 29t-34.5 84t34.5 83t87.5 28t89 -28t36 -83t-36 -84zM281 1587q-36 -29 -89 -29t-87.5 29t-34.5 84t34.5 83t87.5 28t89 -28t36 -83t-36 -84z" />
    <glyph glyph-name="caron.cap" horiz-adv-x="682" 
d="M16 1783v192l324 -214l324 214v-192l-324 -230z" />
    <glyph glyph-name="ring.cap" horiz-adv-x="682" 
d="M340 1503q-57 0 -107 21t-87 57q-81 77 -81 190q0 112 80.5 190.5t195.5 78.5t195 -78q82 -80 82 -191q0 -112 -82 -190q-81 -78 -196 -78zM341 1615q62 0 105 45q44 45 44 111q0 102 -91 145q-27 12 -58 12q-61 0 -105 -46q-43 -45 -43 -111t43 -111t105 -45z" />
    <glyph glyph-name="tilde.cap" horiz-adv-x="682" 
d="M-75 1602q0 113 69 188q68 73 167 73q80 0 168 -69l84 -64q61 -47 102 -47t65.5 27t24.5 80h152q0 -113 -69 -188q-68 -73 -167 -73q-91 0 -210 96l-41 33q-61 51 -102.5 51t-66 -27t-24.5 -80h-152z" />
    <glyph glyph-name="macron.cap" horiz-adv-x="682" 
d="M70 1682h542v-152h-542v152z" />
    <glyph glyph-name="hungarumlaut.cap" horiz-adv-x="682" 
d="M683 1897h226l-288 -367h-170zM257 1897h226l-288 -367h-170z" />
    <glyph glyph-name="breve.cap" horiz-adv-x="682" 
d="M340 1530q-139 0 -236 96q-99 96 -99 231h160q0 -81 51 -132t124 -51t124 51t51 132h160q0 -135 -99 -231q-97 -96 -236 -96z" />
    <glyph glyph-name="dotaccent.cap" horiz-adv-x="512" 
d="M429 1587q-36 -29 -89 -29t-87.5 29t-34.5 84t34.5 83t87.5 28t89 -28t36 -83t-36 -84z" />
    <glyph glyph-name="caronvertical" horiz-adv-x="517" 
d="M59 1043q94 0 107 125q5 42 5 98v169h172v-167q0 -200 -55 -284q-63 -98 -229 -98v157z" />
    <glyph glyph-name="grave.cap" horiz-adv-x="681" 
d="M97 1897h234l232 -367h-178z" />
    <glyph glyph-name="cedilla.cap" horiz-adv-x="1021" 
d="M510 -381q224 0 224 110q0 36 -30 50t-90 14h-104v291h128v-179h16q224 0 224 -176q0 -170 -222 -221q-71 -17 -146 -17v128z" />
    <glyph glyph-name="commaaccent.cap" horiz-adv-x="510" 
d="M340 -103v-114q0 -171 -66 -234q-61 -59 -223 -59v133q59 0 81 26q38 45 38 134v114h170z" />
  </font>
</defs>
</svg>
